<svg width="260" height="253" viewBox="0 0 260 253" fill="none" xmlns="http://www.w3.org/2000/svg">
<path d="M259.8 111.3C249.533 109.1 239.233 106.933 228.9 104.8C208.767 104 188.633 103.2 168.5 102.4C149.2 108.1 151.3 131.5 168.5 137.2C188.833 138 209.167 138.8 229.5 139.6C239.8 140.3 244.2 124.7 229.5 122.7C219.9 122.367 210.333 122 200.8 121.6C192.7 120 185.4 118.3 177.3 116.7C174.5 114.8 175.7 111.6 178 111.4C185.9 113.8 193.3 114.9 201.2 117.3C209.933 117.3 218.667 117.3 227.4 117.3C230.4 117.3 232.5 117.3 235.4 118.5C245.9 123 244.9 132.9 242.2 139.6H259.6C259.7 130.1 259.7 120.8 259.8 111.3Z" fill="black"/>
<path d="M134.7 135.9C143.7 135.9 151 128.6 151 119.6C151 110.6 143.7 103.3 134.7 103.3C125.6 103.3 118.3 110.6 118.3 119.6C118.3 128.6 125.6 135.9 134.7 135.9Z" fill="black"/>
<path d="M121.8 144.1V156.8H259.6V144.1H121.8Z" fill="#FF7D24"/>
<path fill-rule="evenodd" clip-rule="evenodd" d="M81.4899 238.095L79.7683 237.422L81.9681 251.942L84.4549 253L95.741 243.576L94.0194 242.903L91.6283 244.826L81.9681 241.172L81.4899 238.095ZM82.1594 242.807L90.2893 245.98L83.9767 251.173L83.3071 250.884L82.1594 242.807ZM70.682 242.518L73.0731 238.287C74.0295 236.653 74.3165 235.787 74.0295 235.018C73.7426 234.152 72.8818 233.383 70.9689 232.229C68.5778 230.883 67.717 230.691 66.4736 231.268H66.3779L67.0474 230.114L65.8997 229.344L61.4044 237.037L62.6477 237.807L64.8476 233.96C65.5171 232.902 65.8997 232.422 66.4736 232.229C67.3344 231.845 68.3865 232.133 70.2037 233.287C71.6384 234.056 72.3079 234.633 72.4992 235.306C72.6905 235.979 72.4992 236.46 71.7341 237.903L69.4386 241.845L70.682 242.518ZM59.3958 235.691L64.6563 228.479L63.5085 227.71L61.1174 230.979C60.161 232.325 59.7784 232.614 59.1089 232.806C58.2481 232.998 57.1959 232.614 55.3787 231.268C53.8484 230.114 53.2745 229.44 53.1788 228.671C53.1788 228.094 53.3701 227.613 54.3266 226.363L57.0047 222.805L55.8569 221.94L52.8919 225.979C51.9355 227.325 51.6485 227.998 51.6485 228.864C51.7442 229.825 52.5093 230.691 54.5179 232.229C56.909 233.96 57.8655 234.249 59.0132 233.672L59.1089 233.768L58.248 234.826L59.3958 235.691ZM48.9704 227.613L54.7092 220.786L53.6571 219.921L47.9183 226.748L48.9704 227.613ZM46.4837 230.594L47.5358 229.248L46.4837 228.383L45.4316 229.633L46.4837 230.594ZM43.8056 226.075L45.3359 224.44L46.8663 225.979L47.7271 225.113L46.1011 223.575L49.0661 220.498C50.0226 219.44 50.3095 218.959 50.4051 218.286C50.5964 217.42 50.0225 216.555 48.6835 215.209C47.2488 213.862 46.388 213.478 45.4316 213.67C44.8577 213.862 44.3795 214.151 43.423 215.209L43.0404 215.593L43.9969 216.555L44.3795 216.17C45.1446 215.305 45.4316 215.113 45.8141 215.016C46.388 214.92 46.7706 215.113 47.7271 215.978C48.6835 216.94 49.0661 217.517 48.9704 218.093C48.9704 218.574 48.8748 218.574 47.7271 219.824L45.1446 222.613L40.6493 218.286L39.7885 219.247L44.2838 223.479L42.7535 225.113L43.8056 226.075ZM31.6586 210.016C32.9977 211.555 33.6672 212.228 34.4323 212.612C35.6757 213.093 36.9191 212.708 38.6407 211.458C40.2667 210.016 40.9362 208.958 40.7449 207.708C40.5536 206.746 39.9798 205.785 38.3538 203.765C37.0148 202.035 36.2496 201.361 35.3888 200.977C34.2411 200.496 32.9977 200.881 31.3717 202.227C29.7457 203.573 29.0762 204.631 29.2675 205.881C29.3631 206.746 29.937 207.708 31.6586 210.016ZM32.5194 209.054C31.3717 207.612 30.8935 206.843 30.7022 206.266C30.5109 205.304 30.8935 204.535 32.2325 203.477C33.4759 202.515 34.2411 202.131 34.9106 202.323C35.5801 202.515 36.2496 202.996 37.493 204.631C38.5451 205.977 39.0233 206.65 39.2146 207.227C39.5972 208.285 39.2146 209.054 37.7799 210.208C35.4844 212.035 34.7193 211.843 32.5194 209.054ZM28.1197 203.189L26.972 201.458L33.3802 197.227L32.6151 196.073L26.2068 200.304L23.7201 196.553L22.7636 197.227L25.2504 200.977L24.9634 201.073C23.2418 202.227 22.7636 202.035 21.3289 200.015L20.4681 198.765L19.5117 199.438L20.3725 200.784C22.381 203.669 23.4331 203.862 26.0155 202.131L27.0677 203.862L28.1197 203.189ZM27.1633 187.418L26.3981 185.879L21.9984 187.995L19.3204 182.322C18.1726 179.821 18.1726 179.821 17.9813 179.244C17.7263 178.411 17.9495 177.77 18.6509 177.321C19.0334 177.033 19.1291 177.033 20.5638 176.36L21.7115 175.783L20.9463 174.244L19.3204 175.013C17.3118 175.975 17.0249 176.263 16.7379 176.937C16.6423 177.321 16.5467 177.802 16.7379 178.379C15.6858 177.033 14.9207 176.937 12.8165 177.898C11.86 178.379 11.2862 178.764 10.9036 179.244C10.4253 180.014 10.2341 180.879 10.6166 181.841C10.9036 182.706 10.9036 182.706 12.2426 185.687L15.5902 192.899L27.1633 187.418ZM20.6594 188.668L16.2597 190.784L13.5816 185.014C12.2426 182.225 12.0513 181.552 12.147 180.879C12.2426 180.398 12.8165 179.917 13.5816 179.533C14.1555 179.244 14.9207 179.052 15.2076 179.052C15.9728 179.052 16.451 179.725 17.3118 181.552L17.9813 182.995L20.6594 188.668ZM5.73872 168.667C6.02566 169.724 6.79082 171.84 6.98211 172.609C7.65163 174.244 8.03421 174.821 8.60809 175.302C9.66019 175.975 10.9992 175.879 14.2512 174.821C16.2597 174.244 17.4075 173.763 18.077 173.379C19.0334 172.802 19.5117 171.744 19.416 170.686C19.3523 169.724 18.8103 167.609 17.79 164.339C16.6423 160.589 15.9728 159.339 15.0163 158.858C14.0599 158.377 12.6252 158.57 9.66018 159.435C8.70373 159.724 7.55598 160.204 6.88647 160.493C5.64308 160.974 5.06921 161.455 4.78227 162.128C4.2084 163.089 4.39969 164.532 5.73872 168.667ZM7.46034 169.244C6.50388 166.07 6.21695 165.109 6.1213 164.147C6.02565 163.282 6.21695 162.705 6.88647 162.416C7.36469 162.128 8.79937 161.551 10.2341 161.166C11.2862 160.781 12.7208 160.493 13.3904 160.397C14.1555 160.301 14.6337 160.589 15.0163 161.262C15.3989 162.032 15.9728 163.666 16.5467 165.493C16.8336 166.263 17.4075 168.378 17.5987 169.051C17.8857 170.398 17.8857 170.975 17.6944 171.359C17.4075 171.936 16.3554 172.321 13.6773 173.186C11.2862 173.956 10.0428 174.148 9.56454 173.763C8.99067 173.475 8.41679 172.225 7.46034 169.244ZM15.4946 155.973L13.3904 143.569L11.9557 143.857L13.6773 154.531L9.37325 155.3L7.65163 145.011L6.21695 145.3L7.93856 155.493L4.11275 156.166L2.29548 145.492L0.765159 145.78L2.86936 158.089L15.4946 155.973ZM0.478227 142.799L13.1991 142.415V140.684L2.00855 141.068V140.684L12.8165 129.144L12.7208 126.163L0 126.644V128.375L11.1905 127.99V128.375L0.382576 139.914L0.478227 142.799ZM0.095644 123.856L1.62597 123.952L2.29548 117.605L13.486 118.759L13.6773 117.028L2.48678 115.874L3.15629 109.528L1.72161 109.335L0.095644 123.856ZM9.75583 101.546L11.2862 101.835L12.8165 95.3919C14.6337 95.8727 15.112 96.065 15.3989 96.4496C15.7815 97.1228 15.6858 98.1805 15.0163 101.065C13.5816 107.027 13.2947 107.508 11.9557 107.508C11.4774 107.508 9.94712 107.22 8.32115 106.835C5.83437 106.258 4.97356 105.873 4.59098 105.296C4.20839 104.623 4.39969 103.373 5.2605 99.8153C5.45179 98.9498 5.93001 97.3151 6.1213 96.642C6.50388 95.2957 6.79082 94.8149 7.17341 94.5264C7.55599 94.3341 8.03421 94.3341 9.08631 94.6226L9.56454 92.8917C8.4168 92.6032 7.93857 92.6032 7.36469 92.6994C6.40824 92.8917 5.54743 93.661 5.16485 94.7187C4.87791 95.488 4.11275 97.9882 3.73017 99.8153C2.48677 105.008 2.58242 106.354 4.20839 107.22C5.0692 107.7 6.50389 108.181 8.12986 108.566C9.85148 109.047 11.2862 109.239 12.2426 109.239C13.3904 109.239 14.3468 108.566 14.825 107.412C15.2076 106.45 15.7815 104.431 16.3554 102.123C17.6944 96.642 17.5031 95.488 15.5902 94.5264C14.9207 94.1418 14.2512 93.9494 11.7644 93.3725L9.75583 101.546ZM18.6509 93.3725L23.2418 81.6408L21.8072 81.0638L17.8857 91.1608L13.7729 89.6222L17.5987 79.9099L16.1641 79.333L12.4339 89.0452L8.79937 87.6028L12.7208 77.5059L11.2862 77.0251L6.79082 88.6606L18.6509 93.3725ZM12.5295 74.1402L23.7201 80.3907L24.5809 78.8522L14.825 73.371L14.9207 73.0825L30.1283 68.7552L31.563 66.255L20.3725 60.0046L19.6073 61.447L29.3631 66.9282L29.1718 67.3128L13.9642 71.6401L12.5295 74.1402ZM35.3888 60.6777L41.1275 53.8503C43.423 51.0616 43.9012 50.1961 43.9012 48.946C43.8056 47.5998 42.8491 46.2535 40.6493 44.4265C38.3538 42.5032 37.2061 41.9263 36.0583 41.9263C34.6236 42.0224 33.8585 42.5994 31.276 45.6766L25.633 52.4078L35.3888 60.6777ZM35.2932 58.3698L27.8328 52.0232L32.4238 46.6382C33.3802 45.5804 33.6672 45.0996 33.9541 44.9073C34.7193 44.0418 35.2931 43.7533 35.9627 43.7533C36.8235 43.7533 37.9712 44.4265 39.5016 45.6766C41.8927 47.6959 42.5622 49.0422 41.8927 50.2923C41.6058 50.9654 41.5101 51.0616 39.9798 52.8886L35.2932 58.3698ZM37.7799 38.5606L46.7706 47.6959L48.014 46.4458L39.0233 37.3105L37.7799 38.5606ZM59.9697 35.9643L61.4044 34.7142L47.7271 29.5215L45.6229 31.2524L48.3009 45.7727L49.7356 44.5226L49.1617 41.4455L57.1003 34.8103L59.9697 35.9643ZM55.4743 34.2334L48.7792 39.8107L47.3445 31.8293L47.9183 31.3485L55.4743 34.2334ZM64.465 25.1942L65.2302 26.5405L70.8732 22.9825C71.8297 24.6173 72.1166 25.0981 71.9253 25.5789C71.8297 26.3482 70.9689 27.0213 68.4821 28.5599C63.3173 31.8293 62.839 32.0217 61.7869 31.06C61.5 30.6754 60.5435 29.4253 59.6827 27.9829C58.3437 25.8673 57.9611 24.9057 58.1524 24.2326C58.3437 23.5595 59.3958 22.694 62.3608 20.867C63.2216 20.29 64.6563 19.5207 65.2302 19.2322C66.4736 18.4629 66.9518 18.3668 67.43 18.4629C67.8126 18.5591 68.1952 18.8476 68.769 19.8092L70.2994 18.8476C69.7255 17.9821 69.3429 17.5975 68.8647 17.2128C68.0995 16.732 66.9518 16.6359 65.8997 17.1167C65.1345 17.5013 62.839 18.7514 61.3087 19.713C56.8134 22.5017 55.9526 23.5595 56.5264 25.3865C56.8134 26.3482 57.4829 27.6944 58.3437 29.1368C59.3002 30.6754 60.161 31.8293 60.8305 32.5025C61.6913 33.2718 62.7434 33.4641 63.8911 32.9833C64.8476 32.5986 66.6649 31.5409 68.6734 30.2908C73.4557 27.3098 74.2208 26.3482 73.4557 24.2326C73.1687 23.5595 72.8818 22.9825 71.5428 20.7708L64.465 25.1942ZM71.4471 13.751L76.4207 25.5789L78.0466 24.9057L73.5513 14.6165L73.9339 14.4242L88.5676 20.3862L91.2457 19.2322L86.1765 7.40441L84.6462 8.07754L89.0459 18.4629L88.6633 18.5591L74.0295 12.6933L71.4471 13.751ZM97.7496 4.03877C96.6975 4.32726 94.5933 4.90422 93.8281 5.1927C92.2022 5.67351 91.6283 6.05815 91.0544 6.63512C90.3849 7.59673 90.3849 9.03915 91.2457 12.3086C91.8196 14.328 92.1065 15.4819 92.5848 16.2512C93.063 17.2128 94.0194 17.7898 95.0715 17.7898C96.0917 17.7257 98.2278 17.277 101.48 16.4436C105.306 15.3858 106.549 14.8088 107.123 13.8472C107.601 12.9818 107.505 11.4432 106.74 8.46218C106.453 7.50057 106.071 6.25048 105.879 5.67351C105.401 4.32725 105.019 3.75028 104.349 3.36564C103.393 2.78867 101.958 2.981 97.7496 4.03877ZM97.1757 5.76967C100.332 5.00038 101.288 4.7119 102.245 4.61574C103.106 4.61574 103.68 4.80806 103.967 5.48119C104.253 6.05816 104.732 7.50057 105.019 8.94299C105.306 10.0969 105.593 11.4432 105.688 12.1163C105.688 12.8856 105.401 13.3664 104.732 13.751C103.967 14.0395 102.245 14.6165 100.428 15.0973C99.6625 15.2896 97.5583 15.7704 96.8888 15.9627C95.4541 16.1551 94.9759 16.1551 94.4977 15.8666C94.0194 15.5781 93.6368 14.5203 92.8717 11.8278C92.2978 9.4238 92.2022 8.1737 92.4891 7.69289C92.8717 7.11593 94.1151 6.53896 97.1757 5.76967ZM109.036 10.4816C109.036 10.6739 109.131 11.0585 109.131 11.0585C109.323 12.5971 109.705 13.2702 110.566 13.751C111.427 14.1357 112.575 14.1357 115.444 13.8472C119.27 13.3664 121.087 12.9818 121.948 12.4048C122.904 11.7317 123.287 10.77 123.096 9.13531C123 8.1737 122.713 7.50057 122.33 7.01977C121.661 6.15432 120.705 5.96199 118.887 6.25047C115.444 6.53896 115.444 6.53896 114.583 6.73128C113.053 6.82744 112.096 6.82744 111.427 6.73128C110.566 6.63512 110.279 6.25048 110.184 5.09654C109.992 3.26948 110.853 2.78867 115.635 2.30787C117.261 2.11555 118.505 2.01939 119.079 2.21171C120.035 2.40403 120.226 2.69251 120.418 3.94261V4.13493L122.139 3.94261C121.948 2.30787 121.661 1.63474 120.8 1.15394C119.844 0.576971 118.409 0.480809 115.635 0.769292C114.392 0.961614 112.67 1.25009 111.714 1.44242C110.375 1.7309 109.705 2.01939 109.131 2.69252C108.558 3.26948 108.334 4.13493 108.462 5.28886C108.749 7.88521 110.088 8.6545 113.435 8.26986C119.652 7.59673 119.652 7.59673 120.226 7.69289C120.991 7.88521 121.278 8.36602 121.374 9.4238C121.502 10.5136 121.183 11.2188 120.418 11.5393C119.652 11.7317 118.026 12.0201 116.4 12.2125C113.818 12.501 112.288 12.5971 111.809 12.5009C111.14 12.3086 110.949 12.0201 110.757 10.5777L110.662 10.2892L109.036 10.4816ZM124.53 0V1.44242L130.939 1.53858L130.747 12.8856H132.469L132.565 1.63474H138.973V0.192327L124.53 0ZM140.981 0.576965L139.834 13.3664L141.555 13.4626L142.703 0.673132L140.981 0.576965ZM156.763 11.4432L156.667 12.0201C156.38 13.5587 155.998 13.8472 154.754 13.8472C154.276 13.8472 152.076 13.5587 150.833 13.3664C149.302 13.0779 147.581 12.6933 146.72 12.5009C145.668 12.2125 145.381 11.7317 145.381 10.7701C145.381 10.0969 145.668 8.07754 145.859 7.01977C146.242 4.80806 146.624 3.65413 147.198 3.26948C147.772 2.981 149.302 3.07716 152.65 3.65413C154.85 4.03877 156.285 4.42341 156.858 4.80806C157.528 5.1927 157.624 5.57735 157.432 6.82744L157.337 7.30825L158.963 7.59673C159.25 5.38503 159.25 5.00038 158.771 4.32725C158.102 3.36564 156.858 2.88484 153.033 2.21171C151.981 2.01939 150.355 1.73091 149.494 1.63474C147.581 1.44242 146.911 1.53858 146.146 1.82706C145.19 2.40403 144.616 3.84645 144.042 7.40441C143.468 10.3854 143.564 11.8278 144.138 12.6933C144.807 13.6549 146.051 14.0395 151.024 14.905C154.946 15.5781 156.189 15.6743 156.954 15.0973C157.719 14.6165 157.815 14.1357 158.389 11.7317L156.763 11.4432ZM160.11 12.5971C160.015 12.7894 159.919 13.0779 159.919 13.1741C159.345 14.7127 159.441 15.3858 160.11 16.1551C160.78 16.9244 161.736 17.4052 164.51 18.2706C168.145 19.4246 169.962 19.8092 171.014 19.713C172.162 19.5207 172.927 18.6553 173.405 17.1167C173.692 16.2512 173.788 15.482 173.596 14.905C173.214 13.8472 172.544 13.2702 170.727 12.7894C167.475 11.7317 167.475 11.7317 166.614 11.4432C165.18 10.9624 164.319 10.5777 163.745 10.1931C162.98 9.71227 162.884 9.23147 163.267 8.1737C163.841 6.4428 164.893 6.34663 169.484 7.78905C171.014 8.36602 172.066 8.75066 172.64 9.23147C173.405 9.71227 173.405 10.0969 173.023 11.2509V11.4432L174.649 12.0201C175.127 10.3854 175.127 9.71228 174.553 8.94299C173.979 7.98138 172.736 7.30825 169.962 6.4428C168.814 6.05816 167.093 5.67351 166.232 5.48119C164.797 5.19271 164.032 5.19271 163.267 5.48119C162.502 5.80173 161.96 6.50691 161.641 7.59673C160.78 10.0969 161.736 11.347 164.893 12.4048C170.823 14.328 170.823 14.328 171.397 14.7127C171.97 15.0973 172.066 15.6743 171.683 16.732C171.365 17.8219 170.791 18.3027 169.962 18.1745C169.197 18.1745 167.571 17.6937 165.945 17.2128C163.554 16.4436 162.119 15.8666 161.736 15.5781C161.163 15.0973 161.163 14.8088 161.545 13.3664L161.641 13.0779L160.11 12.5971ZM177.996 23.1748L179.526 23.9441L181.726 19.6169L187.369 22.5979C188.453 23.1748 189.123 23.5274 189.378 23.6556C190.908 24.3288 191.386 24.5211 192.343 24.3288C193.204 24.1364 193.873 23.3672 194.638 21.8286C195.404 20.29 195.595 19.3284 195.212 18.4629C194.83 17.5975 194.83 17.5975 191.004 15.4819L183.83 11.7317L177.996 23.1748ZM182.396 18.3668L184.691 13.9434L190.43 16.9244C193.204 18.4629 193.395 18.5591 193.586 19.1361C193.873 19.5207 193.778 20.0015 193.108 21.1555C192.534 22.2132 192.247 22.5979 191.769 22.694C191.1 22.8864 190.813 22.7902 188.135 21.3478L182.396 18.3668ZM195.499 22.5017L194.83 32.791L196.264 33.7526L205.542 29.3292L204.107 28.3675L196.36 32.214L196.169 32.1178L196.838 23.4633L195.499 22.5017ZM208.89 29.233L207.551 30.9639L205.829 29.6176L205.064 30.4831L206.785 31.9255L204.012 35.195C203.151 36.3489 202.864 36.8297 202.864 37.5029C202.768 38.3683 203.438 39.2337 204.872 40.4838C206.307 41.6378 207.264 42.0224 208.124 41.7339C208.794 41.5416 209.272 41.157 210.133 40.0992L210.42 39.7146L209.368 38.7529L208.985 39.2337C208.316 40.0992 208.124 40.2915 207.742 40.3877C207.168 40.58 206.69 40.3877 205.733 39.6184C204.681 38.7529 204.299 38.176 204.299 37.599C204.394 37.1182 204.394 37.1182 205.446 35.772L207.837 32.791L212.62 36.7336L213.385 35.8681L208.603 31.8293L210.037 30.1946L208.89 29.233ZM210.324 42.2147L208.89 43.8495L210.42 45.2919L211.855 43.6572L210.324 42.2147ZM225.245 41.9263L215.489 50.2923L223.141 59.2353L224.288 58.2737L217.785 50.5808L226.297 43.2725L225.245 41.9263ZM233.375 54.6195L231.558 55.8696L230.314 54.0426L229.358 54.8119L230.601 56.5428L227.062 59.0429C225.914 59.8122 225.532 60.293 225.341 60.87C225.054 61.7355 225.436 62.6971 226.488 64.2356C227.54 65.7742 228.401 66.4474 229.262 66.4474C229.932 66.3512 230.505 66.1589 231.558 65.3896L232.036 65.0049L231.271 63.851L230.792 64.2356C229.932 64.8126 229.645 65.0049 229.262 65.0049C228.688 65.0049 228.306 64.7165 227.54 63.6587C226.775 62.6009 226.584 61.9278 226.68 61.447C226.871 60.9662 226.871 60.9662 228.306 59.9084L231.366 57.6967L234.905 62.7932L235.957 62.1201L232.418 57.0236L234.14 55.7735L233.375 54.6195ZM246 71.7362L245.33 70.4861L241.026 72.9863L240.931 72.8901C241.505 71.8324 241.313 71.0631 240.07 68.8514C238.731 66.5435 238.157 65.6781 237.392 65.1973C236.244 64.5241 234.905 64.7165 233.088 65.7742C231.271 66.832 230.505 67.6974 230.41 69.0437C230.41 69.9092 230.792 70.8708 231.94 73.0825C233.375 75.5827 233.949 76.1596 235.192 76.1596V76.2558L234.236 76.8328L234.905 77.9867L246 71.7362ZM238.922 69.4284C240.644 72.5055 240.548 73.371 237.966 74.7172C236.722 75.4865 235.957 75.6788 235.192 75.2942C234.618 75.0057 234.044 74.2364 232.897 72.3132C231.271 69.3322 231.366 68.5629 233.757 67.1205C235.192 66.3512 235.957 66.255 236.722 66.5435C237.296 66.832 237.87 67.5051 238.922 69.4284ZM237.679 79.2368L235.67 80.1984L236.627 82.0255L238.54 81.16L237.679 79.2368Z" fill="black"/>
<path fill-rule="evenodd" clip-rule="evenodd" d="M20 130.1C20 68.7 69.6 19 130.7 19C181 19 223.4 52.6001 236.9 98.7001L222.1 95.8H193.5C181.3 73.5 157.8 58.4 130.7 58.4C91.3 58.4 59.3 90.5 59.3 130.1C59.3 169.7 91.3 201.9 130.7 201.9C157.8 201.9 181.4 186.7 193.5 164.3H222.1L236.9 161.5C223.4 207.6 181 241.3 130.7 241.3C69.6 241.3 20 191.5 20 130.1ZM129.9 46.7001C141.3 46.7001 152.5 49 163 53.5L165.4 54.5C168 56.3 166.5 60.3001 163.3 59.2001L161 58.2001C151.2 54.0001 140.6 51.9 129.9 51.9C121.7 51.9 113.5 53.1 105.8 55.6L103.3 56.4C99.9 57.9 97.6 53.5 101.7 51.5L104.2 50.7001C112.5 48.1001 121.2 46.7001 129.9 46.7001ZM26.4 130.1C26.4 149.2 31.5 167.1 40.4 182.5L47.7 178.3C39.5 164.1 34.8 147.7 34.8 130.1C34.8 112.6 39.5 96.2 47.7 82L40.4 77.8C31.5 93.2001 26.4 111.1 26.4 130.1ZM56.2 173.4C48.8 160.6 44.6 145.9 44.6 130.1C44.6 114.4 48.8 99.6 56.2 86.9L64 91.4C57.4 102.8 53.7 116 53.7 130.1C53.7 144.2 57.4 157.5 64 168.8L56.2 173.4Z" fill="#7A8187"/>
<path fill-rule="evenodd" clip-rule="evenodd" d="M72.5919 96.3527C84.2185 75.9022 106.075 62.1 131.1 62.1C155.9 62.1 177.5 75.6001 189.2 95.7001H157.7C150.4 89.9001 141.1 86.5 131.1 86.5C115.089 86.5 101.098 95.2514 93.6053 108.274L89.1 105.7C84.9 112.9 82.5 121.2 82.5 130.1C82.5 139 84.9 147.4 89.1 154.6L93.5979 151.938C101.088 164.998 115.084 173.8 131.1 173.8C141.1 173.8 150.4 170.3 157.7 164.5H189.2C177.5 184.7 155.9 198.2 131.1 198.2C106.084 198.2 84.2341 184.408 72.6043 163.939L79.3 160C74.2 151.2 71.3 141 71.3 130.1C71.3 119.2 74.2 109 79.3 100.2L72.5919 96.3527Z" fill="#00B9F2"/>
</svg>
