<svg width="1050" height="253" viewBox="0 0 1050 253" fill="none" xmlns="http://www.w3.org/2000/svg">
<path d="M217.3 152.3V156.7H1024.4V152.3H217.3Z" fill="#FF7D24"/>
<path d="M259.8 111.3C249.533 109.1 239.233 106.933 228.9 104.8C208.767 104 188.633 103.2 168.5 102.4C149.2 108.1 151.3 131.5 168.5 137.2C188.833 138 209.167 138.8 229.5 139.6C239.8 140.3 244.2 124.7 229.5 122.7C219.9 122.367 210.333 122 200.8 121.6C192.7 120 185.4 118.3 177.3 116.7C174.5 114.8 175.7 111.6 178 111.4C185.9 113.8 193.3 114.9 201.2 117.3C209.933 117.3 218.667 117.3 227.4 117.3C230.4 117.3 232.5 117.3 235.4 118.5C245.9 123 244.9 132.9 242.2 139.6H259.6C259.7 130.1 259.7 120.8 259.8 111.3Z" fill="white"/>
<path d="M134.7 135.9C143.7 135.9 151 128.6 151 119.6C151 110.6 143.7 103.3 134.7 103.3C125.6 103.3 118.3 110.6 118.3 119.6C118.3 128.6 125.6 135.9 134.7 135.9Z" fill="white"/>
<path d="M121.8 144.1V156.8H259.6V144.1H121.8Z" fill="#FF7D24"/>
<path fill-rule="evenodd" clip-rule="evenodd" d="M81.4899 238.095L79.7683 237.422L81.9681 251.942L84.4549 253L95.741 243.576L94.0194 242.903L91.6283 244.826L81.9681 241.172L81.4899 238.095ZM82.1594 242.807L90.2893 245.98L83.9767 251.173L83.3071 250.884L82.1594 242.807ZM70.682 242.518L73.0731 238.287C74.0295 236.653 74.3165 235.787 74.0295 235.018C73.7426 234.152 72.8818 233.383 70.9689 232.229C68.5778 230.883 67.717 230.691 66.4736 231.268H66.3779L67.0474 230.114L65.8997 229.344L61.4044 237.037L62.6477 237.807L64.8476 233.96C65.5171 232.902 65.8997 232.422 66.4736 232.229C67.3344 231.845 68.3865 232.133 70.2037 233.287C71.6384 234.056 72.3079 234.633 72.4992 235.306C72.6905 235.979 72.4992 236.46 71.7341 237.903L69.4386 241.845L70.682 242.518ZM59.3958 235.691L64.6563 228.479L63.5085 227.71L61.1174 230.979C60.161 232.325 59.7784 232.614 59.1089 232.806C58.2481 232.998 57.1959 232.614 55.3787 231.268C53.8484 230.114 53.2745 229.44 53.1788 228.671C53.1788 228.094 53.3701 227.613 54.3266 226.363L57.0047 222.805L55.8569 221.94L52.8919 225.979C51.9355 227.325 51.6485 227.998 51.6485 228.864C51.7442 229.825 52.5093 230.691 54.5179 232.229C56.909 233.96 57.8655 234.249 59.0132 233.672L59.1089 233.768L58.248 234.826L59.3958 235.691ZM48.9704 227.613L54.7092 220.786L53.6571 219.921L47.9183 226.748L48.9704 227.613ZM46.4837 230.594L47.5358 229.248L46.4837 228.383L45.4316 229.633L46.4837 230.594ZM43.8056 226.075L45.3359 224.44L46.8663 225.979L47.7271 225.113L46.1011 223.575L49.0661 220.498C50.0226 219.44 50.3095 218.959 50.4051 218.286C50.5964 217.42 50.0225 216.555 48.6835 215.209C47.2488 213.862 46.388 213.478 45.4316 213.67C44.8577 213.862 44.3795 214.151 43.423 215.209L43.0404 215.593L43.9969 216.555L44.3795 216.17C45.1446 215.305 45.4316 215.113 45.8141 215.016C46.388 214.92 46.7706 215.113 47.7271 215.978C48.6835 216.94 49.0661 217.517 48.9704 218.093C48.9704 218.574 48.8748 218.574 47.7271 219.824L45.1446 222.613L40.6493 218.286L39.7885 219.247L44.2838 223.479L42.7535 225.113L43.8056 226.075ZM31.6586 210.016C32.9977 211.555 33.6672 212.228 34.4323 212.612C35.6757 213.093 36.9191 212.708 38.6407 211.458C40.2667 210.016 40.9362 208.958 40.7449 207.708C40.5536 206.746 39.9798 205.785 38.3538 203.765C37.0148 202.035 36.2496 201.361 35.3888 200.977C34.2411 200.496 32.9977 200.881 31.3717 202.227C29.7457 203.573 29.0762 204.631 29.2675 205.881C29.3631 206.746 29.937 207.708 31.6586 210.016ZM32.5194 209.054C31.3717 207.612 30.8935 206.843 30.7022 206.266C30.5109 205.304 30.8935 204.535 32.2325 203.477C33.4759 202.515 34.2411 202.131 34.9106 202.323C35.5801 202.515 36.2496 202.996 37.493 204.631C38.5451 205.977 39.0233 206.65 39.2146 207.227C39.5972 208.285 39.2146 209.054 37.7799 210.208C35.4844 212.035 34.7193 211.843 32.5194 209.054ZM28.1197 203.189L26.972 201.458L33.3802 197.227L32.6151 196.073L26.2068 200.304L23.7201 196.553L22.7636 197.227L25.2504 200.977L24.9634 201.073C23.2418 202.227 22.7636 202.035 21.3289 200.015L20.4681 198.765L19.5117 199.438L20.3725 200.784C22.381 203.669 23.4331 203.862 26.0155 202.131L27.0677 203.862L28.1197 203.189ZM27.1633 187.418L26.3981 185.879L21.9984 187.995L19.3204 182.322C18.1726 179.821 18.1726 179.821 17.9813 179.244C17.7263 178.411 17.9495 177.77 18.6509 177.321C19.0334 177.033 19.1291 177.033 20.5638 176.36L21.7115 175.783L20.9463 174.244L19.3204 175.013C17.3118 175.975 17.0249 176.263 16.7379 176.937C16.6423 177.321 16.5467 177.802 16.7379 178.379C15.6858 177.033 14.9207 176.937 12.8165 177.898C11.86 178.379 11.2862 178.764 10.9036 179.244C10.4253 180.014 10.2341 180.879 10.6166 181.841C10.9036 182.706 10.9036 182.706 12.2426 185.687L15.5902 192.899L27.1633 187.418ZM20.6594 188.668L16.2597 190.784L13.5816 185.014C12.2426 182.225 12.0513 181.552 12.147 180.879C12.2426 180.398 12.8165 179.917 13.5816 179.533C14.1555 179.244 14.9207 179.052 15.2076 179.052C15.9728 179.052 16.451 179.725 17.3118 181.552L17.9813 182.995L20.6594 188.668ZM5.73872 168.667C6.02566 169.724 6.79082 171.84 6.98211 172.609C7.65163 174.244 8.03421 174.821 8.60809 175.302C9.66019 175.975 10.9992 175.879 14.2512 174.821C16.2597 174.244 17.4075 173.763 18.077 173.379C19.0334 172.802 19.5117 171.744 19.416 170.686C19.3523 169.724 18.8103 167.609 17.79 164.339C16.6423 160.589 15.9728 159.339 15.0163 158.858C14.0599 158.377 12.6252 158.57 9.66018 159.435C8.70373 159.724 7.55598 160.204 6.88647 160.493C5.64308 160.974 5.06921 161.455 4.78227 162.128C4.2084 163.089 4.39969 164.532 5.73872 168.667ZM7.46034 169.244C6.50388 166.07 6.21695 165.109 6.1213 164.147C6.02565 163.282 6.21695 162.705 6.88647 162.416C7.36469 162.128 8.79937 161.551 10.2341 161.166C11.2862 160.781 12.7208 160.493 13.3904 160.397C14.1555 160.301 14.6337 160.589 15.0163 161.262C15.3989 162.032 15.9728 163.666 16.5467 165.493C16.8336 166.263 17.4075 168.378 17.5987 169.051C17.8857 170.398 17.8857 170.975 17.6944 171.359C17.4075 171.936 16.3554 172.321 13.6773 173.186C11.2862 173.956 10.0428 174.148 9.56454 173.763C8.99067 173.475 8.41679 172.225 7.46034 169.244ZM15.4946 155.973L13.3904 143.569L11.9557 143.857L13.6773 154.531L9.37325 155.3L7.65163 145.011L6.21695 145.3L7.93856 155.493L4.11275 156.166L2.29548 145.492L0.765159 145.78L2.86936 158.089L15.4946 155.973ZM0.478227 142.799L13.1991 142.415V140.684L2.00855 141.068V140.684L12.8165 129.144L12.7208 126.163L0 126.644V128.375L11.1905 127.99V128.375L0.382576 139.914L0.478227 142.799ZM0.095644 123.856L1.62597 123.952L2.29548 117.605L13.486 118.759L13.6773 117.028L2.48678 115.874L3.15629 109.528L1.72161 109.335L0.095644 123.856ZM9.75583 101.546L11.2862 101.835L12.8165 95.3919C14.6337 95.8727 15.112 96.065 15.3989 96.4496C15.7815 97.1228 15.6858 98.1805 15.0163 101.065C13.5816 107.027 13.2947 107.508 11.9557 107.508C11.4774 107.508 9.94712 107.22 8.32115 106.835C5.83437 106.258 4.97356 105.873 4.59098 105.296C4.20839 104.623 4.39969 103.373 5.2605 99.8153C5.45179 98.9498 5.93001 97.3151 6.1213 96.642C6.50388 95.2957 6.79082 94.8149 7.17341 94.5264C7.55599 94.3341 8.03421 94.3341 9.08631 94.6226L9.56454 92.8917C8.4168 92.6032 7.93857 92.6032 7.36469 92.6994C6.40824 92.8917 5.54743 93.661 5.16485 94.7187C4.87791 95.488 4.11275 97.9882 3.73017 99.8153C2.48677 105.008 2.58242 106.354 4.20839 107.22C5.0692 107.7 6.50389 108.181 8.12986 108.566C9.85148 109.047 11.2862 109.239 12.2426 109.239C13.3904 109.239 14.3468 108.566 14.825 107.412C15.2076 106.45 15.7815 104.431 16.3554 102.123C17.6944 96.642 17.5031 95.488 15.5902 94.5264C14.9207 94.1418 14.2512 93.9494 11.7644 93.3725L9.75583 101.546ZM18.6509 93.3725L23.2418 81.6408L21.8072 81.0638L17.8857 91.1608L13.7729 89.6222L17.5987 79.9099L16.1641 79.333L12.4339 89.0452L8.79937 87.6028L12.7208 77.5059L11.2862 77.0251L6.79082 88.6606L18.6509 93.3725ZM12.5295 74.1402L23.7201 80.3907L24.5809 78.8522L14.825 73.371L14.9207 73.0825L30.1283 68.7552L31.563 66.255L20.3725 60.0046L19.6073 61.447L29.3631 66.9282L29.1718 67.3128L13.9642 71.6401L12.5295 74.1402ZM35.3888 60.6777L41.1275 53.8503C43.423 51.0616 43.9012 50.1961 43.9012 48.946C43.8056 47.5998 42.8491 46.2535 40.6493 44.4265C38.3538 42.5032 37.2061 41.9263 36.0583 41.9263C34.6236 42.0224 33.8585 42.5994 31.276 45.6766L25.633 52.4078L35.3888 60.6777ZM35.2932 58.3698L27.8328 52.0232L32.4238 46.6382C33.3802 45.5804 33.6672 45.0996 33.9541 44.9073C34.7193 44.0418 35.2931 43.7533 35.9627 43.7533C36.8235 43.7533 37.9712 44.4265 39.5016 45.6766C41.8927 47.6959 42.5622 49.0422 41.8927 50.2923C41.6058 50.9654 41.5101 51.0616 39.9798 52.8886L35.2932 58.3698ZM37.7799 38.5606L46.7706 47.6959L48.014 46.4458L39.0233 37.3105L37.7799 38.5606ZM59.9697 35.9643L61.4044 34.7142L47.7271 29.5215L45.6229 31.2524L48.3009 45.7727L49.7356 44.5226L49.1617 41.4455L57.1003 34.8103L59.9697 35.9643ZM55.4743 34.2334L48.7792 39.8107L47.3445 31.8293L47.9183 31.3485L55.4743 34.2334ZM64.465 25.1942L65.2302 26.5405L70.8732 22.9825C71.8297 24.6173 72.1166 25.0981 71.9253 25.5789C71.8297 26.3482 70.9689 27.0213 68.4821 28.5599C63.3173 31.8293 62.839 32.0217 61.7869 31.06C61.5 30.6754 60.5435 29.4253 59.6827 27.9829C58.3437 25.8673 57.9611 24.9057 58.1524 24.2326C58.3437 23.5595 59.3958 22.694 62.3608 20.867C63.2216 20.29 64.6563 19.5207 65.2302 19.2322C66.4736 18.4629 66.9518 18.3668 67.43 18.4629C67.8126 18.5591 68.1952 18.8476 68.769 19.8092L70.2994 18.8476C69.7255 17.9821 69.3429 17.5975 68.8647 17.2128C68.0995 16.732 66.9518 16.6359 65.8997 17.1167C65.1345 17.5013 62.839 18.7514 61.3087 19.713C56.8134 22.5017 55.9526 23.5595 56.5264 25.3865C56.8134 26.3482 57.4829 27.6944 58.3437 29.1368C59.3002 30.6754 60.161 31.8293 60.8305 32.5025C61.6913 33.2718 62.7434 33.4641 63.8911 32.9833C64.8476 32.5986 66.6649 31.5409 68.6734 30.2908C73.4557 27.3098 74.2208 26.3482 73.4557 24.2326C73.1687 23.5595 72.8818 22.9825 71.5428 20.7708L64.465 25.1942ZM71.4471 13.751L76.4207 25.5789L78.0466 24.9057L73.5513 14.6165L73.9339 14.4242L88.5676 20.3862L91.2457 19.2322L86.1765 7.40441L84.6462 8.07754L89.0459 18.4629L88.6633 18.5591L74.0295 12.6933L71.4471 13.751ZM97.7496 4.03877C96.6975 4.32726 94.5933 4.90422 93.8281 5.1927C92.2022 5.67351 91.6283 6.05815 91.0544 6.63512C90.3849 7.59673 90.3849 9.03915 91.2457 12.3086C91.8196 14.328 92.1065 15.4819 92.5848 16.2512C93.063 17.2128 94.0194 17.7898 95.0715 17.7898C96.0917 17.7257 98.2278 17.277 101.48 16.4436C105.306 15.3858 106.549 14.8088 107.123 13.8472C107.601 12.9818 107.505 11.4432 106.74 8.46218C106.453 7.50057 106.071 6.25048 105.879 5.67351C105.401 4.32725 105.019 3.75028 104.349 3.36564C103.393 2.78867 101.958 2.981 97.7496 4.03877ZM97.1757 5.76967C100.332 5.00038 101.288 4.7119 102.245 4.61574C103.106 4.61574 103.68 4.80806 103.967 5.48119C104.253 6.05816 104.732 7.50057 105.019 8.94299C105.306 10.0969 105.593 11.4432 105.688 12.1163C105.688 12.8856 105.401 13.3664 104.732 13.751C103.967 14.0395 102.245 14.6165 100.428 15.0973C99.6625 15.2896 97.5583 15.7704 96.8888 15.9627C95.4541 16.1551 94.9759 16.1551 94.4977 15.8666C94.0194 15.5781 93.6368 14.5203 92.8717 11.8278C92.2978 9.4238 92.2022 8.1737 92.4891 7.69289C92.8717 7.11593 94.1151 6.53896 97.1757 5.76967ZM109.036 10.4816C109.036 10.6739 109.131 11.0585 109.131 11.0585C109.323 12.5971 109.705 13.2702 110.566 13.751C111.427 14.1357 112.575 14.1357 115.444 13.8472C119.27 13.3664 121.087 12.9818 121.948 12.4048C122.904 11.7317 123.287 10.77 123.096 9.13531C123 8.1737 122.713 7.50057 122.33 7.01977C121.661 6.15432 120.705 5.96199 118.887 6.25047C115.444 6.53896 115.444 6.53896 114.583 6.73128C113.053 6.82744 112.096 6.82744 111.427 6.73128C110.566 6.63512 110.279 6.25048 110.184 5.09654C109.992 3.26948 110.853 2.78867 115.635 2.30787C117.261 2.11555 118.505 2.01939 119.079 2.21171C120.035 2.40403 120.226 2.69251 120.418 3.94261V4.13493L122.139 3.94261C121.948 2.30787 121.661 1.63474 120.8 1.15394C119.844 0.576971 118.409 0.480809 115.635 0.769292C114.392 0.961614 112.67 1.25009 111.714 1.44242C110.375 1.7309 109.705 2.01939 109.131 2.69252C108.558 3.26948 108.334 4.13493 108.462 5.28886C108.749 7.88521 110.088 8.6545 113.435 8.26986C119.652 7.59673 119.652 7.59673 120.226 7.69289C120.991 7.88521 121.278 8.36602 121.374 9.4238C121.502 10.5136 121.183 11.2188 120.418 11.5393C119.652 11.7317 118.026 12.0201 116.4 12.2125C113.818 12.501 112.288 12.5971 111.809 12.5009C111.14 12.3086 110.949 12.0201 110.757 10.5777L110.662 10.2892L109.036 10.4816ZM124.53 0V1.44242L130.939 1.53858L130.747 12.8856H132.469L132.565 1.63474H138.973V0.192327L124.53 0ZM140.981 0.576965L139.834 13.3664L141.555 13.4626L142.703 0.673132L140.981 0.576965ZM156.763 11.4432L156.667 12.0201C156.38 13.5587 155.998 13.8472 154.754 13.8472C154.276 13.8472 152.076 13.5587 150.833 13.3664C149.302 13.0779 147.581 12.6933 146.72 12.5009C145.668 12.2125 145.381 11.7317 145.381 10.7701C145.381 10.0969 145.668 8.07754 145.859 7.01977C146.242 4.80806 146.624 3.65413 147.198 3.26948C147.772 2.981 149.302 3.07716 152.65 3.65413C154.85 4.03877 156.285 4.42341 156.858 4.80806C157.528 5.1927 157.624 5.57735 157.432 6.82744L157.337 7.30825L158.963 7.59673C159.25 5.38503 159.25 5.00038 158.771 4.32725C158.102 3.36564 156.858 2.88484 153.033 2.21171C151.981 2.01939 150.355 1.73091 149.494 1.63474C147.581 1.44242 146.911 1.53858 146.146 1.82706C145.19 2.40403 144.616 3.84645 144.042 7.40441C143.468 10.3854 143.564 11.8278 144.138 12.6933C144.807 13.6549 146.051 14.0395 151.024 14.905C154.946 15.5781 156.189 15.6743 156.954 15.0973C157.719 14.6165 157.815 14.1357 158.389 11.7317L156.763 11.4432ZM160.11 12.5971C160.015 12.7894 159.919 13.0779 159.919 13.1741C159.345 14.7127 159.441 15.3858 160.11 16.1551C160.78 16.9244 161.736 17.4052 164.51 18.2706C168.145 19.4246 169.962 19.8092 171.014 19.713C172.162 19.5207 172.927 18.6553 173.405 17.1167C173.692 16.2512 173.788 15.482 173.596 14.905C173.214 13.8472 172.544 13.2702 170.727 12.7894C167.475 11.7317 167.475 11.7317 166.614 11.4432C165.18 10.9624 164.319 10.5777 163.745 10.1931C162.98 9.71227 162.884 9.23147 163.267 8.1737C163.841 6.4428 164.893 6.34663 169.484 7.78905C171.014 8.36602 172.066 8.75066 172.64 9.23147C173.405 9.71227 173.405 10.0969 173.023 11.2509V11.4432L174.649 12.0201C175.127 10.3854 175.127 9.71228 174.553 8.94299C173.979 7.98138 172.736 7.30825 169.962 6.4428C168.814 6.05816 167.093 5.67351 166.232 5.48119C164.797 5.19271 164.032 5.19271 163.267 5.48119C162.502 5.80173 161.96 6.50691 161.641 7.59673C160.78 10.0969 161.736 11.347 164.893 12.4048C170.823 14.328 170.823 14.328 171.397 14.7127C171.97 15.0973 172.066 15.6743 171.683 16.732C171.365 17.8219 170.791 18.3027 169.962 18.1745C169.197 18.1745 167.571 17.6937 165.945 17.2128C163.554 16.4436 162.119 15.8666 161.736 15.5781C161.163 15.0973 161.163 14.8088 161.545 13.3664L161.641 13.0779L160.11 12.5971ZM177.996 23.1748L179.526 23.9441L181.726 19.6169L187.369 22.5979C188.453 23.1748 189.123 23.5274 189.378 23.6556C190.908 24.3288 191.386 24.5211 192.343 24.3288C193.204 24.1364 193.873 23.3672 194.638 21.8286C195.404 20.29 195.595 19.3284 195.212 18.4629C194.83 17.5975 194.83 17.5975 191.004 15.4819L183.83 11.7317L177.996 23.1748ZM182.396 18.3668L184.691 13.9434L190.43 16.9244C193.204 18.4629 193.395 18.5591 193.586 19.1361C193.873 19.5207 193.778 20.0015 193.108 21.1555C192.534 22.2132 192.247 22.5979 191.769 22.694C191.1 22.8864 190.813 22.7902 188.135 21.3478L182.396 18.3668ZM195.499 22.5017L194.83 32.791L196.264 33.7526L205.542 29.3292L204.107 28.3675L196.36 32.214L196.169 32.1178L196.838 23.4633L195.499 22.5017ZM208.89 29.233L207.551 30.9639L205.829 29.6176L205.064 30.4831L206.785 31.9255L204.012 35.195C203.151 36.3489 202.864 36.8297 202.864 37.5029C202.768 38.3683 203.438 39.2337 204.872 40.4838C206.307 41.6378 207.264 42.0224 208.124 41.7339C208.794 41.5416 209.272 41.157 210.133 40.0992L210.42 39.7146L209.368 38.7529L208.985 39.2337C208.316 40.0992 208.124 40.2915 207.742 40.3877C207.168 40.58 206.69 40.3877 205.733 39.6184C204.681 38.7529 204.299 38.176 204.299 37.599C204.394 37.1182 204.394 37.1182 205.446 35.772L207.837 32.791L212.62 36.7336L213.385 35.8681L208.603 31.8293L210.037 30.1946L208.89 29.233ZM210.324 42.2147L208.89 43.8495L210.42 45.2919L211.855 43.6572L210.324 42.2147ZM225.245 41.9263L215.489 50.2923L223.141 59.2353L224.288 58.2737L217.785 50.5808L226.297 43.2725L225.245 41.9263ZM233.375 54.6195L231.558 55.8696L230.314 54.0426L229.358 54.8119L230.601 56.5428L227.062 59.0429C225.914 59.8122 225.532 60.293 225.341 60.87C225.054 61.7355 225.436 62.6971 226.488 64.2356C227.54 65.7742 228.401 66.4474 229.262 66.4474C229.932 66.3512 230.505 66.1589 231.558 65.3896L232.036 65.0049L231.271 63.851L230.792 64.2356C229.932 64.8126 229.645 65.0049 229.262 65.0049C228.688 65.0049 228.306 64.7165 227.54 63.6587C226.775 62.6009 226.584 61.9278 226.68 61.447C226.871 60.9662 226.871 60.9662 228.306 59.9084L231.366 57.6967L234.905 62.7932L235.957 62.1201L232.418 57.0236L234.14 55.7735L233.375 54.6195ZM246 71.7362L245.33 70.4861L241.026 72.9863L240.931 72.8901C241.505 71.8324 241.313 71.0631 240.07 68.8514C238.731 66.5435 238.157 65.6781 237.392 65.1973C236.244 64.5241 234.905 64.7165 233.088 65.7742C231.271 66.832 230.505 67.6974 230.41 69.0437C230.41 69.9092 230.792 70.8708 231.94 73.0825C233.375 75.5827 233.949 76.1596 235.192 76.1596V76.2558L234.236 76.8328L234.905 77.9867L246 71.7362ZM238.922 69.4284C240.644 72.5055 240.548 73.371 237.966 74.7172C236.722 75.4865 235.957 75.6788 235.192 75.2942C234.618 75.0057 234.044 74.2364 232.897 72.3132C231.271 69.3322 231.366 68.5629 233.757 67.1205C235.192 66.3512 235.957 66.255 236.722 66.5435C237.296 66.832 237.87 67.5051 238.922 69.4284ZM237.679 79.2368L235.67 80.1984L236.627 82.0255L238.54 81.16L237.679 79.2368Z" fill="white"/>
<path fill-rule="evenodd" clip-rule="evenodd" d="M20 130.1C20 68.7 69.6 19 130.7 19C181 19 223.4 52.6001 236.9 98.7001L222.1 95.8H193.5C181.3 73.5 157.8 58.4 130.7 58.4C91.3 58.4 59.3 90.5 59.3 130.1C59.3 169.7 91.3 201.9 130.7 201.9C157.8 201.9 181.4 186.7 193.5 164.3H222.1L236.9 161.5C223.4 207.6 181 241.3 130.7 241.3C69.6 241.3 20 191.5 20 130.1ZM129.9 46.7001C141.3 46.7001 152.5 49 163 53.5L165.4 54.5C168 56.3 166.5 60.3001 163.3 59.2001L161 58.2001C151.2 54.0001 140.6 51.9 129.9 51.9C121.7 51.9 113.5 53.1 105.8 55.6L103.3 56.4C99.9 57.9 97.6 53.5 101.7 51.5L104.2 50.7001C112.5 48.1001 121.2 46.7001 129.9 46.7001ZM26.4 130.1C26.4 149.2 31.5 167.1 40.4 182.5L47.7 178.3C39.5 164.1 34.8 147.7 34.8 130.1C34.8 112.6 39.5 96.2 47.7 82L40.4 77.8C31.5 93.2001 26.4 111.1 26.4 130.1ZM56.2 173.4C48.8 160.6 44.6 145.9 44.6 130.1C44.6 114.4 48.8 99.6 56.2 86.9L64 91.4C57.4 102.8 53.7 116 53.7 130.1C53.7 144.2 57.4 157.5 64 168.8L56.2 173.4Z" fill="#7A8187"/>
<path fill-rule="evenodd" clip-rule="evenodd" d="M72.5919 96.3527C84.2185 75.9022 106.075 62.1 131.1 62.1C155.9 62.1 177.5 75.6001 189.2 95.7001H157.7C150.4 89.9001 141.1 86.5 131.1 86.5C115.089 86.5 101.098 95.2514 93.6053 108.274L89.1 105.7C84.9 112.9 82.5 121.2 82.5 130.1C82.5 139 84.9 147.4 89.1 154.6L93.5979 151.938C101.088 164.998 115.084 173.8 131.1 173.8C141.1 173.8 150.4 170.3 157.7 164.5H189.2C177.5 184.7 155.9 198.2 131.1 198.2C106.084 198.2 84.2341 184.408 72.6043 163.939L79.3 160C74.2 151.2 71.3 141 71.3 130.1C71.3 119.2 74.2 109 79.3 100.2L72.5919 96.3527Z" fill="#00B9F2"/>
<path fill-rule="evenodd" clip-rule="evenodd" d="M288.9 173.6H308.1C310.1 173.6 311.667 174.1 312.8 175.1C313.933 176.033 314.5 177.7 314.5 180.1C314.5 182.033 314.233 183.367 313.7 184.1C313.167 184.833 312 185.367 310.2 185.7C312.2 185.833 313.533 186.333 314.2 187.2C314.933 188.067 315.3 189.6 315.3 191.8C315.3 194.733 314.667 196.7 313.4 197.7C312.2 198.767 310.333 199.3 307.8 199.3H288.9V173.6ZM291.6 196.7H307.3C308.9 196.7 310.167 196.433 311.1 195.9C311.967 195.367 312.4 194.167 312.4 192.3C312.4 192.1 312.4 191.9 312.4 191.7C312.4 191.433 312.4 191.2 312.4 191C312.333 190.4 312.2 189.8 312 189.2C311.867 188.667 311.533 188.233 311 187.9C310.6 187.633 310.2 187.467 309.8 187.4C309.333 187.333 308.9 187.267 308.5 187.2C308.3 187.2 308.133 187.2 308 187.2C307.867 187.2 307.733 187.2 307.6 187.2H291.6V196.7ZM291.6 184.6H307C308.533 184.667 309.7 184.4 310.5 183.8C311.233 183.267 311.6 182.1 311.6 180.3C311.6 178.633 311.267 177.533 310.6 177C309.867 176.533 308.833 176.3 307.5 176.3H291.6V184.6ZM339.1 199.2H336.7V197.1C336.233 197.967 335.7 198.533 335.1 198.8C334.5 199.133 333.8 199.333 333 199.4C332.267 199.467 331.533 199.5 330.8 199.5C330.067 199.5 329.333 199.5 328.6 199.5C328.5 199.5 326.4 199.5 326.4 199.5C326.333 199.5 326.267 199.5 326.2 199.5C324.533 199.5 323 199.2 321.6 198.6C320.2 198.067 319.5 196.6 319.5 194.2C319.5 192.2 319.833 190.8 320.5 190C321.1 189.2 322.267 188.733 324 188.6C324.4 188.533 324.8 188.5 325.2 188.5C325.6 188.433 326 188.4 326.4 188.4C326.733 188.4 327.1 188.4 327.5 188.4C327.9 188.4 328.3 188.4 328.7 188.4C329.433 188.4 330.167 188.4 330.9 188.4C331.7 188.467 332.467 188.5 333.2 188.5C333.933 188.567 334.5 188.7 334.9 188.9C335.367 189.033 335.8 189.367 336.2 189.9C336.267 189.967 336.333 190.067 336.4 190.2C336.467 190.267 336.567 190.367 336.7 190.5C336.7 190.4 336.7 188.2 336.7 188C336.7 187.733 336.667 187.5 336.6 187.3C336.6 186.633 336.5 186.033 336.3 185.5C336.167 184.9 335.867 184.433 335.4 184.1C335.067 183.9 334.6 183.733 334 183.6C333.4 183.467 332.767 183.4 332.1 183.4C331.7 183.333 331.267 183.3 330.8 183.3C330.4 183.3 330.033 183.3 329.7 183.3C329.3 183.3 328.9 183.3 328.5 183.3C328.1 183.3 327.7 183.3 327.3 183.3C326.967 183.3 326.6 183.333 326.2 183.4C325.8 183.4 325.4 183.433 325 183.5C324.133 183.633 323.567 183.967 323.3 184.5C322.967 184.967 322.8 185.667 322.8 186.6H320.2C320.2 184.6 320.6 183.233 321.4 182.5C322.2 181.767 323.433 181.3 325.1 181.1C325.367 181.1 325.667 181.067 326 181C326.333 181 326.633 180.967 326.9 180.9C327.233 180.9 327.567 180.9 327.9 180.9C328.167 180.9 328.467 180.9 328.8 180.9C329.267 180.9 329.733 180.9 330.2 180.9C330.667 180.9 331.133 180.9 331.6 180.9C332.333 180.967 333.033 181.033 333.7 181.1C334.367 181.167 335.033 181.333 335.7 181.6C337.167 182 338.1 182.8 338.5 184C338.9 185.133 339.1 186.467 339.1 188V199.2ZM323.2 196.5C323.933 196.833 324.8 197 325.8 197H328.6C329 197.067 329.467 197.1 330 197.1C330.533 197.1 331.067 197.067 331.6 197C332.133 197 332.7 196.967 333.3 196.9C333.833 196.833 334.3 196.733 334.7 196.6C335.367 196.4 335.867 196.067 336.2 195.6C336.533 195.133 336.7 194.533 336.7 193.8C336.7 193.267 336.6 192.767 336.4 192.3C336.133 191.833 335.8 191.5 335.4 191.3C335 191.033 334.467 190.867 333.8 190.8C333.2 190.733 332.567 190.667 331.9 190.6C331.7 190.6 331.533 190.6 331.4 190.6C331.2 190.6 331 190.6 330.8 190.6C330.6 190.6 330.4 190.6 330.2 190.6C330 190.6 329.833 190.6 329.7 190.6C329.5 190.667 329.333 190.7 329.2 190.7C329 190.7 328.833 190.7 328.7 190.7C328.367 190.7 327.967 190.7 327.5 190.7C327.1 190.7 326.667 190.733 326.2 190.8C325.667 190.8 325.167 190.833 324.7 190.9C324.167 191.033 323.7 191.167 323.3 191.3C322.767 191.5 322.433 191.867 322.3 192.4C322.167 192.933 322.1 193.467 322.1 194C322.1 195.4 322.467 196.233 323.2 196.5ZM361.2 186.1C361.067 185.033 360.833 184.333 360.5 184C360.167 183.667 359.5 183.433 358.5 183.3C358.3 183.3 358.033 183.3 357.7 183.3C357.433 183.233 357.2 183.2 357 183.2C356.467 183.2 355.933 183.2 355.4 183.2C354.867 183.2 354.333 183.2 353.8 183.2C353.067 183.2 352.333 183.2 351.6 183.2C350.8 183.2 350.033 183.267 349.3 183.4C348.633 183.533 348.033 183.767 347.5 184.1C346.967 184.433 346.7 185.033 346.7 185.9C346.7 187.1 346.967 187.833 347.5 188.1C348.033 188.433 348.767 188.6 349.7 188.6L353.8 188.7H358.3C360.1 188.7 361.533 189.033 362.6 189.7C363.667 190.3 364.2 191.7 364.2 193.9C364.2 196.367 363.6 197.867 362.4 198.4C361.267 198.867 359.9 199.133 358.3 199.2C358.1 199.2 357.933 199.2 357.8 199.2C357.6 199.267 357.433 199.3 357.3 199.3C356.9 199.3 356.533 199.3 356.2 199.3C355.8 199.3 355.4 199.3 355 199.3C354.667 199.367 354.3 199.4 353.9 199.4C353.567 199.4 353.2 199.4 352.8 199.4C352.467 199.4 352.1 199.4 351.7 199.4C351.367 199.4 351 199.367 350.6 199.3C350 199.3 349.433 199.267 348.9 199.2C348.367 199.2 347.867 199.133 347.4 199C346 198.667 345.067 198.1 344.6 197.3C344.133 196.433 343.9 195.267 343.9 193.8C343.9 193.733 343.9 193.667 343.9 193.6C343.9 193.533 343.9 193.467 343.9 193.4C343.9 193.333 343.9 193.267 343.9 193.2C343.9 193.133 343.9 193.067 343.9 193H346.4C346.4 193.067 346.4 193.167 346.4 193.3C346.4 193.367 346.4 193.4 346.4 193.4C346.4 194.733 346.633 195.6 347.1 196C347.633 196.467 348.433 196.767 349.5 196.9C350.167 196.9 350.867 196.933 351.6 197C352.267 197 352.967 197 353.7 197C354.633 197 355.533 197 356.4 197C357.333 197 358.267 196.933 359.2 196.8C359.933 196.667 360.533 196.433 361 196.1C361.4 195.833 361.6 195.267 361.6 194.4C361.6 193 361.3 192.1 360.7 191.7C360.1 191.3 359.233 191.1 358.1 191.1L353.7 191H349.6C348 191 346.7 190.733 345.7 190.2C344.633 189.6 344.1 188.267 344.1 186.2C344.1 184.333 344.6 183.033 345.6 182.3C346.533 181.567 347.767 181.133 349.3 181C349.633 181 350 180.967 350.4 180.9C350.8 180.9 351.2 180.9 351.6 180.9C351.933 180.833 352.3 180.8 352.7 180.8C353.1 180.8 353.467 180.8 353.8 180.8C354.267 180.8 354.7 180.8 355.1 180.8C355.567 180.8 356 180.8 356.4 180.8C356.8 180.8 357.233 180.833 357.7 180.9C358.1 180.9 358.533 180.933 359 181C360.6 181.133 361.733 181.567 362.4 182.3C363.067 182.967 363.467 184.233 363.6 186.1H361.2ZM368.9 181H371.3V199.1H368.9V181ZM368.9 173.2H371.3V176.6H368.9V173.2ZM394.1 192.6H396.6C396.533 195.4 395.8 197.2 394.4 198C393 198.8 391.233 199.233 389.1 199.3C388.633 199.3 388.167 199.3 387.7 199.3C387.3 199.3 386.867 199.3 386.4 199.3C383.267 199.3 380.8 198.8 379 197.8C377.2 196.8 376.3 194.267 376.3 190.2C376.3 189.8 376.333 189.4 376.4 189C376.4 188.533 376.4 188.067 376.4 187.6C376.467 186.933 376.567 186.3 376.7 185.7C376.833 185.1 377.033 184.567 377.3 184.1C377.967 182.967 378.833 182.167 379.9 181.7C380.967 181.233 382.067 180.933 383.2 180.8C383.533 180.8 383.833 180.8 384.1 180.8C384.367 180.733 384.667 180.7 385 180.7C385.133 180.7 385.267 180.7 385.4 180.7C385.533 180.7 385.633 180.7 385.7 180.7C385.833 180.767 385.967 180.8 386.1 180.8C386.233 180.8 386.333 180.8 386.4 180.8C386.6 180.8 386.8 180.8 387 180.8C387.2 180.8 387.433 180.8 387.7 180.8C387.767 180.8 387.833 180.8 387.9 180.8C388.033 180.8 388.133 180.8 388.2 180.8C390.267 180.867 392.133 181.233 393.8 181.9C395.467 182.567 396.3 184.4 396.3 187.4L393.8 187.3C393.8 186.567 393.7 185.933 393.5 185.4C393.3 184.8 392.9 184.3 392.3 183.9C391.967 183.7 391.5 183.567 390.9 183.5C390.367 183.367 389.833 183.267 389.3 183.2C388.833 183.2 388.4 183.2 388 183.2C387.533 183.2 387.133 183.2 386.8 183.2H386.4C386.067 183.2 385.667 183.2 385.2 183.2C384.8 183.2 384.367 183.233 383.9 183.3C383.367 183.3 382.867 183.367 382.4 183.5C381.933 183.567 381.5 183.7 381.1 183.9C380.633 184.1 380.267 184.367 380 184.7C379.667 185.1 379.433 185.567 379.3 186.1C379.167 186.5 379.067 186.9 379 187.3C379 187.7 378.967 188.1 378.9 188.5C378.9 188.833 378.9 189.133 378.9 189.4C378.9 189.667 378.9 189.967 378.9 190.3C378.9 191.767 379.067 193.133 379.4 194.4C379.733 195.6 380.7 196.333 382.3 196.6C383.1 196.733 383.933 196.833 384.8 196.9C385.6 196.967 386.4 197 387.2 197C387.467 197 387.733 197 388 197C388.267 197 388.567 197 388.9 197C389.3 196.933 389.7 196.867 390.1 196.8C390.5 196.8 390.9 196.733 391.3 196.6C392.3 196.333 393 195.867 393.4 195.2C393.8 194.6 394.033 193.767 394.1 192.7V192.6ZM414 180.9H425.1V183.3H414V192C414 194 414.3 195.333 414.9 196C415.567 196.667 416.767 197 418.5 197C419.833 197 420.967 196.8 421.9 196.4C422.833 196.067 423.3 195 423.3 193.2C423.3 193 423.3 192.8 423.3 192.6C423.3 192.467 423.3 192.3 423.3 192.1C423.3 191.967 423.3 191.8 423.3 191.6C423.3 191.467 423.3 191.3 423.3 191.1H425.5C425.5 194.167 425.167 196.3 424.5 197.5C423.9 198.7 422 199.3 418.8 199.3C416.733 199.3 415 199 413.6 198.4C412.267 197.8 411.6 196.1 411.6 193.3V183.3H407.7V180.9H411.6V176.9H414V180.9ZM429.2 190.1C429.2 187.633 429.5 185.567 430.1 183.9C430.767 182.233 432.333 181.233 434.8 180.9C435.2 180.833 435.6 180.767 436 180.7C436.4 180.7 436.8 180.7 437.2 180.7C437.6 180.633 438 180.6 438.4 180.6C438.8 180.6 439.2 180.6 439.6 180.6C442.8 180.6 445.367 181 447.3 181.8C449.3 182.6 450.3 185.2 450.3 189.6C450.3 194.2 449.433 196.933 447.7 197.8C446.033 198.733 443.3 199.2 439.5 199.2C436.3 199.2 433.767 198.767 431.9 197.9C430.1 197.033 429.2 194.433 429.2 190.1ZM433.3 195.7C434.367 196.5 436.133 196.9 438.6 196.9C438.667 196.9 438.767 196.9 438.9 196.9C438.967 196.9 439.033 196.9 439.1 196.9C439.167 196.9 439.233 196.9 439.3 196.9C439.433 196.9 439.533 196.9 439.6 196.9C439.8 196.9 440.033 196.9 440.3 196.9C440.5 196.833 440.733 196.8 441 196.8C442.933 196.733 444.533 196.433 445.8 195.9C447.067 195.433 447.7 193.733 447.7 190.8C447.7 190.667 447.7 190.5 447.7 190.3C447.7 190.167 447.7 190.033 447.7 189.9C447.7 188.367 447.5 186.933 447.1 185.6C446.7 184.333 445.7 183.567 444.1 183.3C443.167 183.167 442.233 183.1 441.3 183.1C440.367 183.1 439.433 183.1 438.5 183.1C436.1 183.1 434.367 183.433 433.3 184.1C432.233 184.833 431.7 186.767 431.7 189.9C431.7 192.967 432.233 194.9 433.3 195.7ZM467.9 180.9H479V183.2H467.9V191.9C467.9 193.967 468.2 195.3 468.8 195.9C469.467 196.567 470.667 196.9 472.4 196.9C473.8 196.9 474.967 196.7 475.9 196.3C476.767 195.967 477.2 194.9 477.2 193.1C477.2 192.9 477.2 192.7 477.2 192.5C477.2 192.367 477.2 192.2 477.2 192C477.2 191.867 477.2 191.7 477.2 191.5C477.2 191.367 477.2 191.2 477.2 191H479.4C479.4 194.067 479.1 196.2 478.5 197.4C477.833 198.6 475.9 199.2 472.7 199.2C470.633 199.2 468.933 198.9 467.6 198.3C466.2 197.7 465.5 196 465.5 193.2V183.2H461.6V180.9H465.5V176.8H467.9V180.9ZM483.6 173.1H486V184.5C486.533 183.033 487.367 182.067 488.5 181.6C489.633 181.067 490.8 180.767 492 180.7C492.333 180.7 492.633 180.7 492.9 180.7C493.233 180.633 493.567 180.6 493.9 180.6C496.3 180.6 498.5 180.9 500.5 181.5C502.433 182.167 503.4 184.233 503.4 187.7V199H501V187.7C501 186.767 500.867 185.967 500.6 185.3C500.333 184.567 499.8 184.033 499 183.7C498.467 183.433 497.867 183.267 497.2 183.2C496.6 183.133 496 183.067 495.4 183C495.2 183 495 183 494.8 183C494.6 183 494.433 183 494.3 183C493.9 183 493.5 183 493.1 183C492.767 183 492.367 183.033 491.9 183.1C490.433 183.167 489.1 183.533 487.9 184.2C486.633 184.867 486 186.267 486 188.4V199H483.6V173.1ZM527.7 190.4H509.6C509.667 191.933 509.867 193.267 510.2 194.4C510.6 195.467 511.533 196.2 513 196.6C513.4 196.667 513.833 196.733 514.3 196.8C514.767 196.867 515.2 196.9 515.6 196.9C515.933 196.9 516.267 196.9 516.6 196.9C516.933 196.9 517.267 196.9 517.6 196.9H518.9C519.167 196.967 519.433 197 519.7 197C519.9 197 520.133 196.967 520.4 196.9C521 196.9 521.6 196.867 522.2 196.8C522.733 196.667 523.2 196.5 523.6 196.3C524.133 196.033 524.533 195.7 524.8 195.3C525 194.833 525.133 194.3 525.2 193.7L527.7 193.6C527.7 195.8 527.033 197.233 525.7 197.9C524.367 198.633 522.9 199.067 521.3 199.2C520.833 199.2 520.367 199.233 519.9 199.3C519.5 199.3 519.067 199.3 518.6 199.3C515.267 199.3 512.533 198.9 510.4 198.1C508.333 197.367 507.3 194.667 507.3 190C507.3 186.2 507.933 183.7 509.2 182.5C510.533 181.233 512.8 180.6 516 180.6C516.133 180.6 516.3 180.6 516.5 180.6C516.633 180.6 516.767 180.6 516.9 180.6C517.033 180.667 517.167 180.7 517.3 180.7C517.433 180.7 517.567 180.7 517.7 180.7C517.767 180.7 517.867 180.7 518 180.7C518.067 180.7 518.167 180.7 518.3 180.7C521.233 180.833 523.567 181.3 525.3 182.1C526.967 182.9 527.8 185.367 527.8 189.5C527.8 189.567 527.8 189.633 527.8 189.7C527.8 189.767 527.8 189.867 527.8 190C527.733 190.067 527.7 190.133 527.7 190.2C527.7 190.267 527.7 190.333 527.7 190.4ZM525.3 188.1C525.3 188.033 525.3 187.933 525.3 187.8C525.233 187.667 525.2 187.5 525.2 187.3C525.2 186.833 525.133 186.333 525 185.8C524.867 185.267 524.6 184.8 524.2 184.4C523.8 184 523.3 183.7 522.7 183.5C522.033 183.3 521.367 183.167 520.7 183.1C520.3 183.1 519.933 183.1 519.6 183.1C519.333 183.1 519.033 183.1 518.7 183.1H516.8C516.467 183.1 516.1 183.1 515.7 183.1C515.367 183.1 515 183.133 514.6 183.2C513.867 183.2 513.167 183.3 512.5 183.5C511.833 183.7 511.267 184 510.8 184.4C510.467 184.733 510.233 185.133 510.1 185.6C509.967 186.133 509.867 186.633 509.8 187.1C509.8 187.233 509.767 187.4 509.7 187.6C509.7 187.8 509.7 187.967 509.7 188.1H525.3ZM542.3 173.1H544.7V183.9C545.167 182.7 545.867 181.9 546.8 181.5C547.733 181.1 548.7 180.833 549.7 180.7C549.967 180.7 550.233 180.7 550.5 180.7C550.767 180.7 551.033 180.7 551.3 180.7H553.1C556.5 180.7 559.033 181.2 560.7 182.2C562.367 183.133 563.2 185.733 563.2 190C563.2 194.333 562.367 196.967 560.7 197.9C559.1 198.833 556.567 199.3 553.1 199.3C552.967 199.3 552.833 199.3 552.7 199.3C552.5 199.3 552.3 199.3 552.1 199.3C551.967 199.3 551.8 199.3 551.6 199.3C551.4 199.3 551.233 199.3 551.1 199.3C549.767 199.3 548.567 199.133 547.5 198.8C546.367 198.533 545.433 197.667 544.7 196.2V199H542.3V173.1ZM544.8 190.9C544.8 191.167 544.8 191.4 544.8 191.6C544.8 192.533 544.967 193.433 545.3 194.3C545.567 195.167 546.133 195.833 547 196.3C547.4 196.433 547.867 196.567 548.4 196.7C549 196.767 549.6 196.833 550.2 196.9C550.8 196.967 551.367 197 551.9 197C552.433 197 552.9 197 553.3 197C553.633 197 554 197 554.4 197C554.867 197 555.367 196.967 555.9 196.9C556.433 196.833 556.933 196.767 557.4 196.7C557.867 196.633 558.3 196.5 558.7 196.3C559.367 195.967 559.833 195.4 560.1 194.6C560.367 193.8 560.533 193 560.6 192.2C560.6 192 560.6 191.767 560.6 191.5C560.6 191.3 560.6 191.1 560.6 190.9V190C560.6 189.933 560.6 189.9 560.6 189.9C560.6 188.367 560.433 186.933 560.1 185.6C559.767 184.333 558.8 183.567 557.2 183.3C556.867 183.233 556.533 183.2 556.2 183.2C555.867 183.2 555.533 183.2 555.2 183.2C554.867 183.133 554.533 183.1 554.2 183.1C553.867 183.1 553.5 183.1 553.1 183.1C552.367 183.1 551.6 183.133 550.8 183.2C550 183.2 549.2 183.267 548.4 183.4C546.6 183.667 545.533 184.467 545.2 185.8C544.933 187.067 544.8 188.567 544.8 190.3C544.8 190.5 544.8 190.7 544.8 190.9ZM588.2 190.4H570.1C570.1 191.933 570.3 193.267 570.7 194.4C571.033 195.533 571.967 196.267 573.5 196.6C573.9 196.733 574.3 196.8 574.7 196.8C575.167 196.867 575.633 196.9 576.1 196.9C576.433 196.967 576.767 197 577.1 197C577.433 197 577.733 197 578 197H579.3C579.567 197 579.833 197 580.1 197C580.367 197 580.6 197 580.8 197C581.4 196.933 582 196.867 582.6 196.8C583.133 196.667 583.633 196.5 584.1 196.3C584.567 196.033 584.933 195.7 585.2 195.3C585.467 194.833 585.6 194.3 585.6 193.7L588.2 193.6C588.133 195.8 587.433 197.267 586.1 198C584.767 198.667 583.3 199.067 581.7 199.2C581.233 199.267 580.767 199.3 580.3 199.3C579.9 199.3 579.467 199.3 579 199.3C575.667 199.3 572.967 198.933 570.9 198.2C568.767 197.4 567.7 194.7 567.7 190.1C567.7 186.3 568.333 183.767 569.6 182.5C570.933 181.3 573.233 180.7 576.5 180.7C576.633 180.7 576.767 180.7 576.9 180.7C577.033 180.7 577.167 180.7 577.3 180.7C577.433 180.7 577.567 180.7 577.7 180.7C577.833 180.7 577.967 180.7 578.1 180.7C578.167 180.7 578.267 180.7 578.4 180.7C578.533 180.7 578.633 180.7 578.7 180.7C581.7 180.833 584.033 181.3 585.7 182.1C587.367 182.9 588.2 185.367 588.2 189.5C588.2 189.567 588.2 189.667 588.2 189.8C588.2 189.867 588.2 189.933 588.2 190C588.2 190.067 588.2 190.133 588.2 190.2C588.2 190.267 588.2 190.333 588.2 190.4ZM585.7 188.1C585.7 188.033 585.7 187.933 585.7 187.8C585.7 187.667 585.7 187.533 585.7 187.4C585.633 186.867 585.533 186.333 585.4 185.8C585.267 185.333 585 184.9 584.6 184.5C584.267 184.033 583.767 183.7 583.1 183.5C582.433 183.3 581.767 183.2 581.1 183.2C580.767 183.133 580.433 183.1 580.1 183.1C579.767 183.1 579.433 183.1 579.1 183.1H577.2C576.867 183.1 576.5 183.1 576.1 183.1C575.767 183.167 575.4 183.2 575 183.2C574.267 183.267 573.567 183.4 572.9 183.6C572.233 183.733 571.7 184.033 571.3 184.5C570.9 184.767 570.633 185.167 570.5 185.7C570.367 186.167 570.267 186.633 570.2 187.1C570.2 187.3 570.2 187.467 570.2 187.6C570.133 187.8 570.1 187.967 570.1 188.1H585.7ZM609.9 185.9C609.767 184.9 609.533 184.233 609.2 183.9C608.867 183.567 608.2 183.333 607.2 183.2C607 183.2 606.767 183.167 606.5 183.1C606.233 183.1 605.967 183.1 605.7 183.1C605.167 183.033 604.633 183 604.1 183C603.567 183 603.033 183 602.5 183C601.767 183 601.033 183.033 600.3 183.1C599.5 183.1 598.767 183.167 598.1 183.3C597.367 183.433 596.733 183.667 596.2 184C595.667 184.267 595.4 184.867 595.4 185.8C595.4 187 595.667 187.733 596.2 188C596.8 188.333 597.533 188.5 598.4 188.5L602.6 188.6H607C608.8 188.6 610.233 188.933 611.3 189.6C612.367 190.2 612.9 191.6 612.9 193.8C612.9 196.267 612.3 197.733 611.1 198.2C609.967 198.733 608.6 199.033 607 199.1C606.8 199.1 606.633 199.1 606.5 199.1C606.3 199.1 606.133 199.133 606 199.2C605.6 199.2 605.233 199.2 604.9 199.2C604.5 199.2 604.133 199.2 603.8 199.2C603.4 199.267 603 199.3 602.6 199.3C602.267 199.3 601.9 199.3 601.5 199.3C601.167 199.3 600.8 199.3 600.4 199.3C600.067 199.3 599.7 199.267 599.3 199.2C598.767 199.2 598.2 199.167 597.6 199.1C597.067 199.033 596.567 198.967 596.1 198.9C594.767 198.567 593.833 198 593.3 197.2C592.833 196.333 592.6 195.167 592.6 193.7C592.6 193.633 592.6 193.567 592.6 193.5C592.6 193.433 592.6 193.367 592.6 193.3C592.6 193.233 592.6 193.167 592.6 193.1C592.6 193.033 592.6 192.967 592.6 192.9H595.1C595.1 192.967 595.1 193.033 595.1 193.1C595.1 193.233 595.1 193.3 595.1 193.3C595.1 194.633 595.333 195.5 595.8 195.9C596.333 196.367 597.133 196.667 598.2 196.8C598.867 196.8 599.567 196.833 600.3 196.9C600.967 196.9 601.667 196.9 602.4 196.9C603.333 196.9 604.267 196.9 605.2 196.9C606.067 196.833 606.967 196.767 607.9 196.7C608.633 196.567 609.233 196.333 609.7 196C610.1 195.733 610.3 195.167 610.3 194.3C610.3 192.9 610 192 609.4 191.6C608.8 191.133 607.933 190.9 606.8 190.9H602.5H598.3C596.7 190.9 595.4 190.633 594.4 190.1C593.333 189.5 592.8 188.167 592.8 186.1C592.8 184.167 593.3 182.833 594.3 182.1C595.233 181.367 596.467 180.967 598 180.9C598.4 180.9 598.767 180.867 599.1 180.8C599.5 180.8 599.9 180.767 600.3 180.7C600.633 180.7 601 180.7 601.4 180.7C601.8 180.7 602.167 180.7 602.5 180.7C602.967 180.7 603.4 180.7 603.8 180.7C604.267 180.7 604.7 180.7 605.1 180.7C605.5 180.7 605.933 180.7 606.4 180.7C606.8 180.767 607.233 180.833 607.7 180.9C609.367 180.967 610.533 181.367 611.2 182.1C611.867 182.833 612.233 184.1 612.3 185.9H609.9ZM621.7 180.9H632.8V183.2H621.7V191.9C621.7 193.967 622 195.333 622.6 196C623.267 196.6 624.467 196.9 626.2 196.9C627.6 196.9 628.767 196.733 629.7 196.4C630.567 196 631 194.9 631 193.1C631 192.9 631 192.733 631 192.6C631 192.4 631 192.233 631 192.1C631 191.9 631 191.733 631 191.6C631 191.4 631 191.233 631 191.1L633.2 191C633.2 194.067 632.9 196.2 632.3 197.4C631.633 198.667 629.7 199.3 626.5 199.3C624.433 199.3 622.733 199 621.4 198.4C620 197.8 619.3 196.067 619.3 193.2V183.2H615.4V180.9H619.3V176.8H621.7V180.9Z" fill="white"/>
<path fill-rule="evenodd" clip-rule="evenodd" d="M645.7 190.4C645.7 187.933 646.033 185.867 646.7 184.2C647.3 182.533 648.833 181.533 651.3 181.2C651.7 181.133 652.1 181.1 652.5 181.1C652.9 181.033 653.3 181 653.7 181C654.1 180.933 654.5 180.9 654.9 180.9C655.3 180.9 655.7 180.9 656.1 180.9C659.3 180.9 661.9 181.3 663.9 182.1C665.833 182.9 666.8 185.5 666.8 189.9C666.8 194.5 665.967 197.267 664.3 198.2C662.633 199.067 659.9 199.5 656.1 199.5C652.833 199.567 650.3 199.133 648.5 198.2C646.633 197.333 645.7 194.733 645.7 190.4ZM649.9 196C650.9 196.8 652.667 197.2 655.2 197.2C655.267 197.2 655.333 197.2 655.4 197.2C655.467 197.2 655.567 197.2 655.7 197.2C655.767 197.2 655.833 197.2 655.9 197.2C655.967 197.2 656.033 197.2 656.1 197.2C656.367 197.2 656.6 197.2 656.8 197.2C657.067 197.2 657.3 197.2 657.5 197.2C659.433 197.067 661.033 196.767 662.3 196.3C663.633 195.767 664.3 194.033 664.3 191.1C664.3 190.967 664.3 190.833 664.3 190.7C664.3 190.5 664.3 190.333 664.3 190.2C664.233 188.667 664 187.267 663.6 186C663.2 184.667 662.2 183.867 660.6 183.6C659.667 183.467 658.767 183.4 657.9 183.4C656.967 183.4 656.033 183.4 655.1 183.4C652.7 183.4 650.967 183.733 649.9 184.4C648.833 185.133 648.3 187.067 648.3 190.2C648.3 193.267 648.833 195.2 649.9 196ZM674.8 181.2H682.9V183.5H674.8V199.3H672.4V183.5H668.9V181.2H672.4V179.7C672.4 177.3 672.967 175.667 674.1 174.8C675.233 173.933 676.8 173.5 678.8 173.5C679.467 173.433 680.167 173.4 680.9 173.4C681.567 173.4 682.233 173.4 682.9 173.4V175.7H679.6C678.2 175.7 677.067 175.9 676.2 176.3C675.267 176.7 674.8 177.833 674.8 179.7V181.2ZM694.7 173.6H697.4V199.3H694.7V173.6ZM703.3 181.2H705.7V184.1C706.167 182.833 706.867 182.033 707.8 181.7C708.8 181.3 709.833 181.067 710.9 181C711.1 181 711.333 181 711.6 181C711.8 181 712.033 181 712.3 181L712.8 180.9C713.067 180.967 713.367 181 713.7 181C714.033 181 714.333 181 714.6 181C715.867 181.067 717.1 181.333 718.3 181.8C719.5 182.267 720.367 183.267 720.9 184.8C721.567 183 722.6 181.9 724 181.5C725.333 181.167 726.767 181 728.3 181C728.367 181 728.433 181 728.5 181C728.5 181 728.533 181 728.6 181C731.2 181 733.333 181.4 735 182.2C736.667 183 737.5 185.067 737.5 188.4V199.3H735.1V188.4C735.1 186.067 734.533 184.667 733.4 184.2C732.267 183.667 730.8 183.4 729 183.4H728.1C728.1 183.4 728.067 183.4 728 183.4C727.933 183.4 727.9 183.4 727.9 183.4C726.3 183.4 724.867 183.667 723.6 184.2C722.267 184.8 721.6 186.233 721.6 188.5V199.3H719.2V188.4C719.2 185.933 718.567 184.5 717.3 184.1C716.033 183.633 714.5 183.4 712.7 183.4C710.833 183.4 709.2 183.667 707.8 184.2C706.4 184.733 705.7 186.333 705.7 189V199.3H703.3V181.2ZM761.9 199.3H759.5V197.2C759.033 198.067 758.5 198.633 757.9 198.9C757.3 199.233 756.6 199.433 755.8 199.5C755.067 199.5 754.333 199.533 753.6 199.6C752.867 199.6 752.133 199.6 751.4 199.6C751.3 199.6 749.2 199.6 749.2 199.6C749.133 199.6 749.067 199.6 749 199.6C747.333 199.6 745.8 199.3 744.4 198.7C743 198.167 742.3 196.667 742.3 194.2C742.3 192.267 742.633 190.9 743.3 190.1C743.9 189.3 745.067 188.8 746.8 188.6C747.2 188.6 747.6 188.567 748 188.5C748.4 188.5 748.8 188.5 749.2 188.5C749.533 188.5 749.9 188.5 750.3 188.5C750.7 188.5 751.1 188.5 751.5 188.5C752.233 188.5 752.967 188.5 753.7 188.5C754.5 188.5 755.267 188.533 756 188.6C756.733 188.667 757.3 188.8 757.7 189C758.167 189.133 758.6 189.467 759 190C759.067 190.067 759.133 190.167 759.2 190.3C759.333 190.367 759.433 190.467 759.5 190.6C759.5 190.4 759.5 188.3 759.5 188C759.5 187.8 759.5 187.567 759.5 187.3C759.433 186.7 759.3 186.133 759.1 185.6C758.967 185 758.667 184.533 758.2 184.2C757.867 183.933 757.4 183.767 756.8 183.7C756.2 183.567 755.567 183.467 754.9 183.4C754.5 183.4 754.067 183.4 753.6 183.4C753.2 183.4 752.833 183.4 752.5 183.4C752.1 183.4 751.7 183.4 751.3 183.4C750.9 183.4 750.533 183.4 750.2 183.4C749.8 183.4 749.4 183.433 749 183.5C748.6 183.5 748.2 183.533 747.8 183.6C746.933 183.733 746.367 184.033 746.1 184.5C745.767 185.033 745.6 185.767 745.6 186.7L743 186.6C743 184.667 743.4 183.333 744.2 182.6C745 181.867 746.233 181.4 747.9 181.2C748.167 181.133 748.467 181.1 748.8 181.1C749.133 181.1 749.433 181.067 749.7 181C750.033 181 750.367 181 750.7 181C750.967 181 751.267 181 751.6 181C752.067 181 752.533 181 753 181C753.467 181 753.933 181 754.4 181C755.133 181.067 755.833 181.133 756.5 181.2C757.167 181.267 757.833 181.4 758.5 181.6C760.033 182.067 760.967 182.867 761.3 184C761.7 185.2 761.9 186.567 761.9 188.1V199.3ZM744.9 194.2C744.9 194.2 744.9 194.167 744.9 194.1V194.2ZM746 196.7C746.733 196.967 747.6 197.133 748.6 197.2H751.4C751.8 197.267 752.267 197.3 752.8 197.3C753.333 197.3 753.867 197.267 754.4 197.2C755 197.133 755.567 197.067 756.1 197C756.633 196.933 757.1 196.833 757.5 196.7C758.167 196.5 758.667 196.167 759 195.7C759.333 195.3 759.5 194.733 759.5 194C759.5 193.467 759.4 192.967 759.2 192.5C758.933 192.033 758.6 191.667 758.2 191.4C757.8 191.2 757.267 191.067 756.6 191C756 190.933 755.367 190.867 754.7 190.8C754.5 190.8 754.333 190.8 754.2 190.8C754 190.8 753.8 190.8 753.6 190.8C753.4 190.8 753.2 190.8 753 190.8C752.867 190.8 752.7 190.8 752.5 190.8C752.3 190.867 752.133 190.9 752 190.9C751.8 190.9 751.633 190.9 751.5 190.9C751.167 190.9 750.767 190.9 750.3 190.9C749.9 190.9 749.467 190.9 749 190.9C748.467 190.967 747.967 191.033 747.5 191.1C746.967 191.167 746.533 191.3 746.2 191.5C745.6 191.7 745.233 192.067 745.1 192.6C744.967 193.133 744.9 193.667 744.9 194.2C744.9 195.6 745.267 196.433 746 196.7ZM785.3 181.2H787.7V200.2C787.7 203.8 786.7 205.967 784.7 206.7C782.7 207.433 780.433 207.8 777.9 207.8H775.9C773.633 207.8 771.667 207.467 770 206.8C768.4 206.2 767.5 204.367 767.3 201.3H769.6C769.8 202.567 770.133 203.467 770.6 204C771.133 204.533 771.967 204.9 773.1 205.1C773.833 205.233 774.533 205.3 775.2 205.3C775.867 205.367 776.567 205.4 777.3 205.4C777.7 205.4 778.133 205.4 778.6 205.4C779.133 205.333 779.633 205.3 780.1 205.3C780.767 205.233 781.4 205.133 782 205C782.667 204.867 783.2 204.7 783.6 204.5C784.2 204.167 784.6 203.667 784.8 203C785.067 202.4 785.233 201.733 785.3 201C785.3 200.867 785.3 200.733 785.3 200.6C785.3 200.467 785.3 200.333 785.3 200.2V196.4C784.7 197.8 783.9 198.667 782.9 199C781.9 199.267 780.767 199.433 779.5 199.5C779.233 199.5 779 199.5 778.8 199.5C778.533 199.567 778.3 199.6 778.1 199.6C777.633 199.6 777.167 199.6 776.7 199.6C776.233 199.6 775.8 199.6 775.4 199.6C772.4 199.6 770.233 199 768.9 197.8C767.567 196.533 766.9 194.167 766.9 190.7C766.9 187.767 767.3 185.5 768.1 183.9C768.833 182.3 770.633 181.367 773.5 181.1C773.9 181.1 774.267 181.1 774.6 181.1C775 181.1 775.4 181.1 775.8 181.1C776.133 181.033 776.5 181 776.9 181C777.3 181 777.7 181 778.1 181C778.367 181 778.7 181 779.1 181C779.433 181 779.767 181.033 780.1 181.1C781.167 181.167 782.2 181.433 783.2 181.9C784.2 182.3 784.9 183.167 785.3 184.5V181.2ZM769.5 191C769.5 191.067 769.5 191.133 769.5 191.2C769.5 192.533 769.7 193.8 770.1 195C770.5 196.133 771.433 196.8 772.9 197C773.1 197.067 773.333 197.1 773.6 197.1C773.8 197.1 774.033 197.1 774.3 197.1C774.5 197.167 774.733 197.2 775 197.2C775.2 197.2 775.433 197.2 775.7 197.2H776.8C777.133 197.2 777.533 197.2 778 197.2C778.4 197.2 778.833 197.2 779.3 197.2C779.767 197.133 780.233 197.1 780.7 197.1C781.167 197.033 781.567 196.967 781.9 196.9C783.233 196.5 784.133 195.833 784.6 194.9C785.067 193.9 785.3 192.7 785.3 191.3C785.3 188.633 785.033 186.667 784.5 185.4C784.033 184.2 782.467 183.533 779.8 183.4C779.533 183.4 779.267 183.4 779 183.4C778.733 183.4 778.5 183.4 778.3 183.4C777.767 183.4 777.233 183.367 776.7 183.3C776.233 183.3 775.733 183.3 775.2 183.3C772.867 183.3 771.333 183.8 770.6 184.8C769.867 185.8 769.5 187.633 769.5 190.3C769.5 190.4 769.5 190.9 769.5 191ZM793.2 181.2H795.6V199.3H793.2V181.2ZM793.2 173.3H795.6V176.7H793.2V173.3ZM801 181.2H803.4V184.9C803.933 183.1 804.867 182 806.2 181.6C807.467 181.2 808.833 180.967 810.3 180.9C810.433 180.9 810.533 180.9 810.6 180.9C810.733 180.9 810.867 180.9 811 180.9H811.3C811.7 180.9 812.1 180.9 812.5 180.9C812.9 180.967 813.333 181 813.8 181C814.667 181.067 815.5 181.233 816.3 181.5C817.1 181.767 817.833 182.167 818.5 182.7C819.367 183.433 819.867 184.3 820 185.3C820.2 186.3 820.3 187.333 820.3 188.4V199.3H817.9V188.6C817.9 186.133 817.267 184.633 816 184.1C814.733 183.567 813.167 183.3 811.3 183.3C811.233 183.3 811.133 183.3 811 183.3C810.933 183.3 810.833 183.3 810.7 183.3C808.9 183.3 807.233 183.6 805.7 184.2C804.167 184.733 803.4 186.367 803.4 189.1V199.3H801V181.2ZM843.7 181.2H846.1V200.2C846.1 203.733 845.1 205.867 843.1 206.6C841.1 207.333 838.833 207.7 836.3 207.7H834.3C832.033 207.7 830.067 207.4 828.4 206.8C826.8 206.133 825.9 204.267 825.7 201.2H828C828.2 202.533 828.533 203.467 829 204C829.533 204.533 830.367 204.867 831.5 205C832.233 205.133 832.933 205.233 833.6 205.3C834.267 205.3 834.967 205.3 835.7 205.3C836.1 205.3 836.533 205.3 837 205.3C837.533 205.3 838.033 205.267 838.5 205.2C839.167 205.2 839.8 205.133 840.4 205C841.067 204.867 841.6 204.667 842 204.4C842.6 204.067 843 203.567 843.2 202.9C843.467 202.3 843.633 201.667 843.7 201C843.7 200.8 843.7 200.633 843.7 200.5C843.7 200.367 843.7 200.267 843.7 200.2V196.3C843.1 197.767 842.3 198.633 841.3 198.9C840.3 199.233 839.167 199.433 837.9 199.5C837.633 199.5 837.4 199.5 837.2 199.5C836.933 199.5 836.7 199.5 836.5 199.5C836.033 199.5 835.567 199.533 835.1 199.6C834.633 199.6 834.2 199.6 833.8 199.6C830.8 199.6 828.633 198.967 827.3 197.7C825.967 196.433 825.3 194.067 825.3 190.6C825.3 187.733 825.7 185.5 826.5 183.9C827.233 182.233 829.033 181.267 831.9 181C832.3 181 832.667 181 833 181C833.4 181 833.8 181 834.2 181C834.533 181 834.9 181 835.3 181C835.7 181 836.1 181 836.5 181C836.767 181 837.1 181 837.5 181C837.833 181 838.167 181 838.5 181C839.567 181.133 840.6 181.4 841.6 181.8C842.6 182.267 843.3 183.133 843.7 184.4V181.2ZM827.9 191C827.9 191.067 827.9 191.167 827.9 191.3C827.9 192.633 828.1 193.867 828.5 195C828.9 196.2 829.833 196.9 831.3 197.1C831.5 197.1 831.733 197.1 832 197.1C832.2 197.167 832.433 197.2 832.7 197.2C832.9 197.2 833.133 197.2 833.4 197.2C833.6 197.2 833.833 197.2 834.1 197.2H835.2C835.533 197.267 835.933 197.3 836.4 197.3C836.8 197.3 837.233 197.267 837.7 197.2C838.167 197.2 838.633 197.167 839.1 197.1C839.567 197.033 839.967 196.967 840.3 196.9C841.633 196.5 842.533 195.833 843 194.9C843.467 193.967 843.7 192.8 843.7 191.4C843.7 188.667 843.433 186.7 842.9 185.5C842.433 184.233 840.867 183.567 838.2 183.5C837.933 183.5 837.667 183.5 837.4 183.5C837.133 183.433 836.9 183.4 836.7 183.4C836.167 183.4 835.633 183.4 835.1 183.4C834.633 183.4 834.133 183.4 833.6 183.4C831.267 183.4 829.733 183.867 829 184.8C828.267 185.8 827.9 187.633 827.9 190.3C827.9 190.4 827.9 190.9 827.9 191ZM853.6 195.1H857V199.3H853.6V195.1ZM866.5 195.1H869.9V199.3H866.5V195.1ZM879.4 195.1H882.8V199.3H879.4V195.1Z" fill="white"/>
<path d="M364.6 98.5H385.1V105.2H364.6V98.5Z" fill="white"/>
<path d="M329.3 95.7001L358.5 67.8H370.8L337.1 99.6L374.9 135.9H362.4L329.3 103.7L296.4 135.9H283.9L321.7 99.6L287.8 67.8H299.9L329.3 95.7001Z" fill="white"/>
<path fill-rule="evenodd" clip-rule="evenodd" d="M745.3 104.3H681.8V136.1H673.5V68H681.8V97.5H745.3V68H753.4V136.1H745.3V104.3ZM761.4 112.5C761.4 105.967 762.333 100.5 764.2 96.1C766.133 91.7666 770.8 89.1 778.2 88.1C779.4 87.9666 780.567 87.8667 781.7 87.8C782.9 87.7334 784.133 87.6666 785.4 87.6C786.533 87.5333 787.7 87.5 788.9 87.5C790.1 87.5 791.267 87.5 792.4 87.5C802 87.5 809.733 88.5666 815.6 90.7C821.467 92.7666 824.4 99.6 824.4 111.2C824.4 123.333 821.867 130.6 816.8 133C811.8 135.467 803.633 136.7 792.3 136.7C782.633 136.7 775.067 135.533 769.6 133.2C764.133 130.933 761.4 124.067 761.4 112.6V112.5ZM769 112.1C769 112.033 769 112 769 112V112.1ZM773.8 127.4C776.933 129.533 782.2 130.6 789.6 130.6C789.867 130.6 790.1 130.6 790.3 130.6C790.567 130.6 790.833 130.567 791.1 130.5C791.3 130.5 791.5 130.5 791.7 130.5C791.967 130.5 792.2 130.5 792.4 130.5C793.133 130.5 793.833 130.467 794.5 130.4C795.233 130.4 795.967 130.4 796.7 130.4C802.433 130.2 807.2 129.4 811 128C814.867 126.6 816.8 122.067 816.8 114.4C816.8 113.933 816.8 113.5 816.8 113.1C816.8 112.7 816.8 112.3 816.8 111.9C816.733 107.9 816.1 104.167 814.9 100.7C813.7 97.2333 810.7 95.1667 805.9 94.5C803.167 94.1 800.433 93.9 797.7 93.9C794.9 93.8334 792.1 93.8 789.3 93.8C782.167 93.8 777 94.7666 773.8 96.7C770.6 98.5666 769 103.7 769 112.1C769 120.167 770.6 125.267 773.8 127.4ZM888.6 136H881.5V126.7C880.033 130.567 877.633 133.133 874.3 134.4C871.033 135.667 867.533 136.4 863.8 136.6C863.067 136.667 862.367 136.7 861.7 136.7C860.967 136.7 860.267 136.7 859.6 136.7C859.533 136.7 859.467 136.7 859.4 136.7C859.4 136.7 859.367 136.7 859.3 136.7C852.233 136.7 845.767 135.8 839.9 134C834.033 132.133 831.1 126.733 831.1 117.8V88H838.2V114.3C838.2 121.9 839.9 126.5 843.3 128.1C846.633 129.7 851.633 130.5 858.3 130.5C864.567 130.5 870 129.733 874.6 128.2C879.2 126.667 881.5 122.067 881.5 114.4V88H888.6V136ZM953.2 101.5C953.2 101.5 953.2 101.467 953.2 101.4V101.5ZM946.1 101.4C945.833 98.6 945.2 96.8 944.2 96C943.133 95.1333 941.133 94.5333 938.2 94.2C937.467 94.1333 936.7 94.0667 935.9 94C935.1 94 934.333 93.9667 933.6 93.9C932 93.8334 930.433 93.8 928.9 93.8C927.3 93.8 925.733 93.8 924.2 93.8C921.933 93.8 919.667 93.8334 917.4 93.9C915.2 93.9667 913 94.1667 910.8 94.5C908.667 94.7667 906.8 95.3333 905.2 96.2C903.6 97 902.8 98.6 902.8 101C902.8 104.133 903.633 106.1 905.3 106.9C906.967 107.767 909.167 108.2 911.9 108.2L924.3 108.4H937.6C942.867 108.467 947.1 109.333 950.3 111C953.5 112.733 955.1 116.5 955.1 122.3C955.1 128.767 953.367 132.667 949.9 134C946.433 135.333 942.3 136.1 937.5 136.3C936.967 136.3 936.433 136.333 935.9 136.4C935.433 136.4 934.967 136.433 934.5 136.5C933.367 136.5 932.267 136.533 931.2 136.6C930.067 136.6 928.933 136.6 927.8 136.6C926.667 136.667 925.567 136.7 924.5 136.7C923.367 136.7 922.233 136.7 921.1 136.7C920.1 136.7 919.033 136.7 917.9 136.7C916.833 136.7 915.733 136.667 914.6 136.6C912.867 136.533 911.167 136.433 909.5 136.3C907.833 136.167 906.333 136 905 135.8C900.867 134.933 898.1 133.4 896.7 131.2C895.3 129 894.6 125.933 894.6 122C894.6 121.8 894.6 121.633 894.6 121.5C894.6 121.3 894.633 121.1 894.7 120.9C894.7 120.767 894.7 120.633 894.7 120.5C894.7 120.3 894.7 120.1 894.7 119.9L901.9 119.8C901.967 120.067 902 120.3 902 120.5C902 120.7 902 120.867 902 121C902 124.4 902.733 126.7 904.2 127.9C905.667 129.033 908 129.767 911.2 130.1C913.333 130.167 915.433 130.267 917.5 130.4C919.567 130.467 921.667 130.5 923.8 130.5C926.533 130.5 929.267 130.467 932 130.4C934.733 130.333 937.467 130.167 940.2 129.9C942.467 129.567 944.233 129 945.5 128.2C946.767 127.333 947.4 125.767 947.4 123.5C947.4 119.9 946.5 117.533 944.7 116.4C942.9 115.267 940.3 114.7 936.9 114.7L924 114.5H911.6C906.867 114.567 902.933 113.833 899.8 112.3C896.733 110.833 895.2 107.333 895.2 101.8C895.2 96.8 896.633 93.3334 899.5 91.4C902.367 89.4667 906.067 88.3666 910.6 88.1C911.733 88.0333 912.867 87.9667 914 87.9C915.133 87.7667 916.267 87.6666 917.4 87.6C918.533 87.5333 919.667 87.5 920.8 87.5C921.933 87.4333 923.067 87.4 924.2 87.4C925.467 87.4 926.733 87.4 928 87.4C929.333 87.4 930.633 87.4333 931.9 87.5C933.167 87.5 934.433 87.5333 935.7 87.6C936.967 87.6666 938.267 87.8 939.6 88C944.467 88.3333 947.9 89.4667 949.9 91.4C951.9 93.3334 953 96.6667 953.2 101.4H946.1ZM1020.6 113.3H966.7C966.833 117.3 967.4 120.767 968.4 123.7C969.467 126.7 972.267 128.667 976.8 129.6C978 129.867 979.267 130.067 980.6 130.2C981.933 130.333 983.233 130.4 984.5 130.4C985.5 130.467 986.5 130.5 987.5 130.5C988.5 130.5 989.467 130.5 990.4 130.5H994.3C995.033 130.567 995.8 130.6 996.6 130.6C997.333 130.6 998.067 130.567 998.8 130.5C1000.6 130.433 1002.33 130.3 1004 130.1C1005.73 129.833 1007.2 129.433 1008.4 128.9C1009.93 128.167 1011.07 127.233 1011.8 126.1C1012.53 124.967 1012.97 123.533 1013.1 121.8L1020.6 121.7C1020.53 127.433 1018.53 131.267 1014.6 133.2C1010.6 135.133 1006.2 136.233 1001.4 136.5C1000 136.567 998.633 136.633 997.3 136.7C995.967 136.7 994.667 136.7 993.4 136.7C983.467 136.7 975.333 135.7 969 133.7C962.667 131.7 959.5 124.533 959.5 112.2C959.5 102.133 961.467 95.4666 965.4 92.2C969.267 88.9333 976.033 87.3 985.7 87.3C986.167 87.3 986.6 87.3 987 87.3C987.467 87.3 987.9 87.3 988.3 87.3C988.7 87.3667 989.1 87.4 989.5 87.4C989.833 87.4 990.2 87.4 990.6 87.4C990.867 87.4 991.167 87.4333 991.5 87.5C991.833 87.5 992.133 87.5 992.4 87.5C1001.27 87.9 1008.2 89.1667 1013.2 91.3C1018.2 93.4334 1020.7 99.9334 1020.7 110.8C1020.7 111 1020.7 111.2 1020.7 111.4C1020.7 111.6 1020.7 111.8 1020.7 112C1020.63 112.2 1020.6 112.433 1020.6 112.7C1020.6 112.9 1020.6 113.1 1020.6 113.3ZM1013.3 107.1C1013.3 106.833 1013.27 106.533 1013.2 106.2C1013.2 105.867 1013.2 105.5 1013.2 105.1C1013.13 103.767 1012.9 102.4 1012.5 101C1012.1 99.6667 1011.3 98.4667 1010.1 97.4C1008.97 96.2667 1007.43 95.4334 1005.5 94.9C1003.57 94.4334 1001.57 94.1333 999.5 94C998.5 93.9333 997.5 93.8667 996.5 93.8C995.5 93.8 994.533 93.8 993.6 93.8H988C987 93.8667 985.933 93.9 984.8 93.9C983.667 93.9667 982.533 94.0333 981.4 94.1C979.267 94.2333 977.2 94.5333 975.2 95C973.2 95.5333 971.533 96.3334 970.2 97.4C969.133 98.2667 968.367 99.3333 967.9 100.6C967.5 101.867 967.233 103.167 967.1 104.5C967.033 104.9 966.967 105.333 966.9 105.8C966.9 106.267 966.9 106.7 966.9 107.1H1013.3Z" fill="white"/>
<path fill-rule="evenodd" clip-rule="evenodd" d="M398 67.8H453.4C461.133 67.8667 466.9 69.1667 470.7 71.7001C474.567 74.3001 476.5 79.7666 476.5 88.1C476.5 94.1 475.6 98.2666 473.8 100.6C472 102.933 468.067 104.567 462 105.5C465.933 105.967 469.133 106.967 471.6 108.5C474.067 110.033 475.3 113.033 475.3 117.5V135.9H467.1V120.8C467.1 115.6 465.967 112.233 463.7 110.7C461.433 109.167 457.767 108.4 452.7 108.4H406.3V135.9H398V67.8ZM406.3 101.5H451.9C457.7 101.567 461.833 100.7 464.3 98.9C466.7 97.1667 467.9 93.4 467.9 87.6C467.9 81.8666 466.533 78.3 463.8 76.9C461 75.5 456.967 74.8 451.7 74.8H406.3V101.5ZM559.2 120.6H504.2L495.5 135.9H485.8L526 67.8H537L577.6 135.9H568.1L559.2 120.6ZM555.3 113.8L531.5 73.9L508 113.8H555.3ZM606.7 99.8L638.4 67.9H650.1L610.9 106.9V135.9H602.6V106.9L563.4 67.9H575.1L606.7 99.8Z" fill="white"/>
<path d="M1033.61 68V70.5217H1028.57V83.1304H1026.04V70.5217H1021V68H1033.61ZM1036.13 68H1039.28L1043.07 74.5515L1046.85 68H1050V83.1304H1047.48V71.9503L1043.07 79.595L1038.65 71.9528V83.1304H1036.13V68Z" fill="white"/>
</svg>
